STARTFONT 2.1
COMMENT
COMMENT Converted from OpenType font "ChivoMono-Bold.ttf" by "otf2bdf 3.0".
COMMENT
FONT -FreeType-chivo mono cp1252-Bold-R-Normal--42-300-100-100-P-199-ISO10646-1
SIZE 30 100 100
FONTBOUNDINGBOX 26 48 0 -9
STARTPROPERTIES 19
FOUNDRY "FreeType"
FAMILY_NAME "chivo mono cp1252"
WEIGHT_NAME "Bold"
SLANT "R"
SETWIDTH_NAME "Normal"
ADD_STYLE_NAME ""
PIXEL_SIZE 42
POINT_SIZE 300
RESOLUTION_X 100
RESOLUTION_Y 100
SPACING "P"
AVERAGE_WIDTH 199
CHARSET_REGISTRY "ISO10646"
CHARSET_ENCODING "1"
FONT_ASCENT 39
FONT_DESCENT 10
COPYRIGHT "Copyright 2018 The Chivo Project Authors (https://github.com/Omnibus-Type/Chivo)"
_OTF_FONTFILE "ChivoMono-Bold.ttf"
_OTF_PSNAME "ChivoMono-Bold"
ENDPROPERTIES
CHARS 219
STARTCHAR 000D
ENCODING 13
SWIDTH 600 0
DWIDTH 25 0
BBX 0 0 0 0
BITMAP
ENDCHAR
STARTCHAR 0020
ENCODING 32
SWIDTH 600 0
DWIDTH 25 0
BBX 0 0 0 0
BITMAP
ENDCHAR
STARTCHAR 0021
ENCODING 33
SWIDTH 600 0
DWIDTH 25 0
BBX 7 29 9 0
BITMAP
FE
FE
FE
FE
FE
FE
FE
FE
FE
FE
FE
7C
7C
7C
7C
7C
7C
7C
7C
7C
00
00
FE
FE
FE
FE
FE
FE
FE
ENDCHAR
STARTCHAR 0022
ENCODING 34
SWIDTH 600 0
DWIDTH 25 0
BBX 13 12 6 17
BITMAP
F8F8
F8F8
F8F8
F8F8
F8F8
F8F8
F8F8
F8F8
F8F8
7070
7070
7070
ENDCHAR
STARTCHAR 0023
ENCODING 35
SWIDTH 600 0
DWIDTH 25 0
BBX 25 29 0 0
BITMAP
00781E00
00783E00
00783C00
00F83C00
00F03C00
00F07C00
00F07800
00F07800
3FFFFF80
3FFFFF80
3FFFFF80
3FFFFF80
03E0F000
03C0F000
03C0F000
03C1F000
03C1E000
07C1E000
FFFFFF00
FFFFFF00
FFFFFF00
FFFFFF00
0F03C000
0F07C000
0F078000
0F078000
1F078000
1E078000
1E0F8000
ENDCHAR
STARTCHAR 0024
ENCODING 36
SWIDTH 600 0
DWIDTH 25 0
BBX 21 35 2 -3
BITMAP
00F800
00F000
00F000
007000
03FE00
0FFFC0
3FFFE0
3FFFF0
7FFFF0
FE03F8
FE01F8
FE01F8
FE0000
FF8000
7FF000
7FFF00
3FFFC0
1FFFF0
0FFFF0
01FFF8
001FF8
0003F8
F801F8
FC01F8
FC01F8
FE03F8
FFFFF8
7FFFF0
3FFFE0
1FFFC0
03FE00
007000
00F000
00F000
00F800
ENDCHAR
STARTCHAR 0025
ENCODING 37
SWIDTH 600 0
DWIDTH 25 0
BBX 25 29 0 0
BITMAP
0E000780
3F800F00
7FC00E00
F1C01E00
F1E03C00
F1E03800
F1E07000
F1E0F000
F1E1E000
F1E1C000
F1E38000
F1E78000
7FC00000
7F800000
1F003000
0000FE00
0001FF00
0071E780
00E3C780
01E3C780
01C3C780
0383C780
0783C780
0F03C780
1E03C780
1C03C780
3C01FF00
7800FF00
F0007C00
ENDCHAR
STARTCHAR 0026
ENCODING 38
SWIDTH 600 0
DWIDTH 25 0
BBX 24 29 1 0
BITMAP
01F800
07F800
1FF800
3FF800
3FF800
7F8000
7F0078
7E00F8
7E00F8
7E00F8
7F01F8
3F81F8
1FFFFF
0FFFFF
0FFFFF
1FFFFF
3FFFFF
7F01F8
FE01F8
FE01F8
FE01F8
FE01F8
FE01F8
FF01F8
7FFFF8
7FFFF8
3FFFF8
0FFFF8
03FFF8
ENDCHAR
STARTCHAR 0027
ENCODING 39
SWIDTH 600 0
DWIDTH 25 0
BBX 5 12 10 17
BITMAP
F8
F8
F8
F8
F8
F8
F8
F8
F8
70
70
70
ENDCHAR
STARTCHAR 0028
ENCODING 40
SWIDTH 600 0
DWIDTH 25 0
BBX 10 36 8 -7
BITMAP
01C0
03C0
0780
0F80
0F00
1F00
1F00
3E00
3E00
3E00
7E00
7C00
7C00
7C00
FC00
FC00
FC00
FC00
FC00
FC00
FC00
FC00
7C00
7C00
7C00
7E00
3E00
3E00
3E00
1F00
1F00
0F00
0780
0780
03C0
01C0
ENDCHAR
STARTCHAR 0029
ENCODING 41
SWIDTH 600 0
DWIDTH 25 0
BBX 10 36 7 -7
BITMAP
E000
F000
7800
7800
3C00
3E00
3E00
1F00
1F00
1F00
0F80
0F80
0F80
0F80
0FC0
0FC0
0FC0
0FC0
0FC0
0FC0
0FC0
0FC0
0F80
0F80
0F80
1F80
1F00
1F00
1F00
3E00
3E00
3C00
7800
7800
F000
E000
ENDCHAR
STARTCHAR 002A
ENCODING 42
SWIDTH 600 0
DWIDTH 25 0
BBX 19 17 3 12
BITMAP
01F000
01F000
01E000
00E000
40E040
70E1C0
7EEFC0
7FFFC0
FFFFE0
07FC00
03F800
07F800
07BC00
0F3E00
3F1F00
1E0F00
060C00
ENDCHAR
STARTCHAR 002B
ENCODING 43
SWIDTH 600 0
DWIDTH 25 0
BBX 21 21 2 0
BITMAP
00F800
00F800
00F800
00F800
00F800
00F800
00F800
00F800
FFFFF8
FFFFF8
FFFFF8
FFFFF8
FFFFF8
00F800
00F800
00F800
00F800
00F800
00F800
00F800
00F800
ENDCHAR
STARTCHAR 002C
ENCODING 44
SWIDTH 600 0
DWIDTH 25 0
BBX 7 15 9 -8
BITMAP
FE
FE
FE
FE
FE
FE
FE
1E
1E
1C
3C
3C
78
F8
F0
ENDCHAR
STARTCHAR 002D
ENCODING 45
SWIDTH 600 0
DWIDTH 25 0
BBX 11 5 7 9
BITMAP
FFE0
FFE0
FFE0
FFE0
FFE0
ENDCHAR
STARTCHAR 002E
ENCODING 46
SWIDTH 600 0
DWIDTH 25 0
BBX 7 7 9 0
BITMAP
FE
FE
FE
FE
FE
FE
FE
ENDCHAR
STARTCHAR 002F
ENCODING 47
SWIDTH 600 0
DWIDTH 25 0
BBX 25 36 0 -7
BITMAP
00000F80
00001F00
00001F00
00003E00
00003C00
00007C00
00007800
0000F800
0000F000
0001F000
0003E000
0003E000
0007C000
00078000
000F8000
000F0000
001F0000
001E0000
003E0000
007C0000
007C0000
00F80000
00F80000
01F00000
01E00000
03E00000
03C00000
07C00000
07800000
0F800000
1F000000
1F000000
3E000000
3C000000
7C000000
F8000000
ENDCHAR
STARTCHAR 0030
ENCODING 48
SWIDTH 600 0
DWIDTH 25 0
BBX 21 29 2 0
BITMAP
01FE00
0FFF80
1FFFC0
3FFFE0
7FFFF0
7F07F0
FE03F8
FE03F8
FC01F8
FC01F8
FC01F8
FC01F8
FC01F8
FC01F8
FC01F8
FC01F8
FC01F8
FC01F8
FC01F8
FC01F8
FC01F8
FE03F8
FE03F8
7F07F0
7FFFF0
3FFFE0
1FFFC0
0FFF80
07FE00
ENDCHAR
STARTCHAR 0031
ENCODING 49
SWIDTH 600 0
DWIDTH 25 0
BBX 20 29 3 0
BITMAP
003800
00F800
03F800
3FF800
FFF800
FFF800
FFF800
FFF800
01F800
01F800
01F800
01F800
01F800
01F800
01F800
01F800
01F800
01F800
01F800
01F800
01F800
01F800
01F800
01F800
FFFFF0
FFFFF0
FFFFF0
FFFFF0
FFFFF0
ENDCHAR
STARTCHAR 0032
ENCODING 50
SWIDTH 600 0
DWIDTH 25 0
BBX 21 29 2 0
BITMAP
01FE00
0FFF80
1FFFC0
3FFFE0
7FFFF0
7F8FF0
FE03F8
FC03F8
FC03F8
FC03F8
0003F8
0003F8
0007F0
000FF0
001FE0
003FC0
00FF80
01FF00
03FE00
0FF800
1FF000
3FC000
7F8000
7FFFF8
FFFFF8
FFFFF8
FFFFF8
FFFFF8
FFFFF8
ENDCHAR
STARTCHAR 0033
ENCODING 51
SWIDTH 600 0
DWIDTH 25 0
BBX 22 29 1 0
BITMAP
01FF00
07FFC0
1FFFE0
1FFFF0
3FFFF8
7F87F8
7E01FC
7E01FC
7E01FC
0001F8
0001F8
0003F8
00FFF0
00FFC0
00FFC0
00FFF0
00FFF8
0001FC
0001FC
0000FC
FC00FC
FC00FC
FE01FC
7E03FC
7FFFFC
3FFFF8
3FFFF0
0FFFE0
07FF80
ENDCHAR
STARTCHAR 0034
ENCODING 52
SWIDTH 600 0
DWIDTH 25 0
BBX 23 29 1 0
BITMAP
01FC00
01F800
01F800
03F8E0
03F0E0
03F1E0
07E1E0
07E1E0
0FC3E0
0FC3E0
0F87E0
1F87E0
1F07E0
3F07E0
3E07E0
7C07E0
7807E0
FFFFFE
FFFFFE
FFFFFE
FFFFFE
FFFFFE
0007E0
0007E0
0007E0
0007E0
0007E0
0007E0
0007E0
ENDCHAR
STARTCHAR 0035
ENCODING 53
SWIDTH 600 0
DWIDTH 25 0
BBX 21 29 2 0
BITMAP
3FFFE0
3FFFE0
3FFFE0
3FFFE0
3FFFE0
3FFFE0
3E0000
7E0000
7E0000
7E0000
7E7E00
7FFF80
7FFFE0
7FFFE0
7FFFF0
7F0FF8
3E03F8
0003F8
0001F8
0001F8
FC01F8
FC03F8
FC03F8
FF07F8
7FFFF0
7FFFE0
3FFFE0
1FFF80
07FE00
ENDCHAR
STARTCHAR 0036
ENCODING 54
SWIDTH 600 0
DWIDTH 25 0
BBX 22 29 2 0
BITMAP
01FE00
07FF80
0FFFC0
1FFFE0
3FFFF0
7F87F0
7F03F8
FE01F8
FE01F8
FE0000
FE0000
FE7F00
FEFFC0
FFFFE0
FFFFF0
FF87F8
FF03F8
FE01FC
FE01FC
FE01FC
FE01FC
FE01FC
7E01F8
7F03F8
3FCFF8
3FFFF0
1FFFE0
0FFFC0
03FF00
ENDCHAR
STARTCHAR 0037
ENCODING 55
SWIDTH 600 0
DWIDTH 25 0
BBX 20 29 3 0
BITMAP
FFFFF0
FFFFF0
FFFFF0
FFFFF0
FFFFF0
FFFFE0
0007C0
000F80
001F80
003F00
003F00
007E00
00FC00
00FC00
01F800
01F800
03F800
03F000
07F000
07F000
07E000
0FE000
0FE000
0FE000
0FE000
1FE000
1FE000
1FE000
1FE000
ENDCHAR
STARTCHAR 0038
ENCODING 56
SWIDTH 600 0
DWIDTH 25 0
BBX 21 29 2 0
BITMAP
01FC00
0FFF80
1FFFC0
3FFFE0
3FDFF0
7F07F0
7E03F0
7E03F0
7E03F0
7E03F0
7E03F0
7F07F0
3FFFE0
1FFFC0
0FFF80
1FFFC0
7F8FF0
7E03F0
FE03F8
FC01F8
FC01F8
FC01F8
FE03F8
FE03F8
FF87F8
7FFFF0
3FFFE0
1FFFC0
07FF00
ENDCHAR
STARTCHAR 0039
ENCODING 57
SWIDTH 600 0
DWIDTH 25 0
BBX 22 29 1 0
BITMAP
01FE00
07FF80
1FFFC0
3FFFE0
3FFFF0
7F03F8
7F03F8
FE01FC
FE01FC
FE01FC
FE01FC
FE01FC
7E01FC
7F03FC
7FFFFC
3FFFFC
1FFFFC
07F9FC
0041FC
0001FC
7E01FC
7E01FC
7E01F8
7F03F8
3FFFF8
3FFFF0
1FFFE0
0FFFC0
03FF00
ENDCHAR
STARTCHAR 003A
ENCODING 58
SWIDTH 600 0
DWIDTH 25 0
BBX 7 22 9 0
BITMAP
FE
FE
FE
FE
FE
FE
FE
00
00
00
00
00
00
00
00
FE
FE
FE
FE
FE
FE
FE
ENDCHAR
STARTCHAR 003B
ENCODING 59
SWIDTH 600 0
DWIDTH 25 0
BBX 7 30 9 -8
BITMAP
FE
FE
FE
FE
FE
FE
FE
00
00
00
00
00
00
00
00
FE
FE
FE
FE
FE
FE
FE
1E
1E
1C
3C
3C
78
F8
F0
ENDCHAR
STARTCHAR 003C
ENCODING 60
SWIDTH 600 0
DWIDTH 25 0
BBX 22 21 1 0
BITMAP
00001C
00007C
0003FC
000FFC
007FFC
03FFE0
0FFF00
7FFC00
FFE000
FF0000
FC0000
FF8000
FFF000
3FFC00
0FFF80
01FFF0
007FFC
000FFC
0001FC
00007C
00000C
ENDCHAR
STARTCHAR 003D
ENCODING 61
SWIDTH 600 0
DWIDTH 25 0
BBX 21 13 2 4
BITMAP
FFFFF8
FFFFF8
FFFFF8
FFFFF8
000000
000000
000000
000000
000000
FFFFF8
FFFFF8
FFFFF8
FFFFF8
ENDCHAR
STARTCHAR 003E
ENCODING 62
SWIDTH 600 0
DWIDTH 25 0
BBX 22 21 2 0
BITMAP
E00000
F80000
FF0000
FFC000
FFF800
1FFF00
03FFC0
00FFF8
001FFC
0003FC
0000FC
0007FC
001FFC
00FFF0
07FFC0
3FFE00
FFF000
FFC000
FE0000
F80000
C00000
ENDCHAR
STARTCHAR 003F
ENCODING 63
SWIDTH 600 0
DWIDTH 25 0
BBX 21 29 2 0
BITMAP
01FE00
07FF80
1FFFC0
3FFFE0
7FFFF0
7F07F0
7E07F8
FE03F8
FE03F8
FE03F8
0007F0
000FF0
000FE0
001FE0
003F80
007F00
00FE00
00FC00
00FC00
00FC00
000000
000000
01FC00
01FC00
01FC00
01FC00
01FC00
01FC00
01FC00
ENDCHAR
STARTCHAR 0040
ENCODING 64
SWIDTH 600 0
DWIDTH 25 0
BBX 25 36 0 -7
BITMAP
007F8000
01FFE000
07E1F800
0F003800
1E001C00
1C000E00
38000E00
383C0700
70FF8700
71FFC300
73FFE380
63F7E380
E3E3F380
E3E1F380
E001F380
E001F380
E03FF380
E0FFF380
E3FFF380
E3FDF380
E7E1F380
E7E1F380
E7E1F380
E7E3F380
E7E3F300
67FFFF00
73FFFF00
73FEFE00
31FC7C00
38000000
3C000000
1C000000
0F002000
07E1E000
03FFE000
007F8000
ENDCHAR
STARTCHAR 0041
ENCODING 65
SWIDTH 600 0
DWIDTH 25 0
BBX 25 29 0 0
BITMAP
00FF8000
00FF8000
00FF8000
01FFC000
01FFC000
01FFC000
03FFE000
03F7E000
03F7E000
03E7E000
07E7F000
07E3F000
07E3F000
07C3F000
0FC3F800
0FC1F800
0FC1F800
1F81FC00
1FFFFC00
1FFFFC00
1FFFFC00
3FFFFE00
3FFFFE00
3F007E00
7F007F00
7F007F00
7E007F00
7E003F00
FE003F80
ENDCHAR
STARTCHAR 0042
ENCODING 66
SWIDTH 600 0
DWIDTH 25 0
BBX 22 29 2 0
BITMAP
FFFE00
FFFFC0
FFFFE0
FFFFF0
FFFFF8
FE0FF8
FE03F8
FE03F8
FE03F8
FE03F8
FE03F8
FE07F0
FFFFE0
FFFFC0
FFFF80
FFFFE0
FFFFF0
FE03F8
FE01F8
FE01FC
FE01FC
FE01FC
FE03FC
FE07FC
FFFFF8
FFFFF8
FFFFF0
FFFFE0
FFFF80
ENDCHAR
STARTCHAR 0043
ENCODING 67
SWIDTH 600 0
DWIDTH 25 0
BBX 23 29 1 0
BITMAP
01FF00
07FFC0
1FFFE0
3FFFF0
3FFFF8
7FC7F8
7F01FC
FF01FC
FE00FC
FE00FC
FE00FC
FE00FE
FE0000
FE0000
FE0000
FE0000
FE0000
FE0002
FE00FC
FE00FC
FE00FC
FE00FC
FF01FC
7F83F8
7FFFF8
3FFFF0
1FFFE0
0FFFC0
03FF80
ENDCHAR
STARTCHAR 0044
ENCODING 68
SWIDTH 600 0
DWIDTH 25 0
BBX 23 29 2 0
BITMAP
FFF800
FFFF80
FFFFE0
FFFFF0
FFFFF8
FFFFF8
FE03FC
FE01FC
FE01FC
FE00FE
FE00FE
FE00FE
FE00FE
FE00FE
FE00FE
FE00FE
FE00FE
FE00FE
FE00FE
FE00FE
FE01FE
FE01FC
FE03FC
FE0FFC
FFFFF8
FFFFF0
FFFFE0
FFFFC0
FFFE00
ENDCHAR
STARTCHAR 0045
ENCODING 69
SWIDTH 600 0
DWIDTH 25 0
BBX 20 29 3 0
BITMAP
FFFFF0
FFFFF0
FFFFF0
FFFFE0
FFFFE0
FFFFE0
FE0000
FE0000
FE0000
FE0000
FE0000
FE0000
FFFFC0
FFFFC0
FFFFC0
FFFFC0
FFFFC0
FE0000
FE0000
FE0000
FE0000
FE0000
FE0000
FFFFE0
FFFFE0
FFFFE0
FFFFF0
FFFFF0
FFFFF0
ENDCHAR
STARTCHAR 0046
ENCODING 70
SWIDTH 600 0
DWIDTH 25 0
BBX 19 29 3 0
BITMAP
FFFFE0
FFFFE0
FFFFE0
FFFFE0
FFFFE0
FFFFE0
FE0000
FE0000
FE0000
FE0000
FE0000
FE0000
FFFF80
FFFF80
FFFF80
FFFF80
FFFF80
FFFF80
FE0000
FE0000
FE0000
FE0000
FE0000
FE0000
FE0000
FE0000
FE0000
FE0000
FE0000
ENDCHAR
STARTCHAR 0047
ENCODING 71
SWIDTH 600 0
DWIDTH 25 0
BBX 23 29 1 0
BITMAP
01FF00
07FFC0
1FFFE0
3FFFF0
3FFFF8
7FC7FC
7F01FC
FE00FC
FE00FE
FE00FE
FE00FE
FE0000
FE0000
FE1FFE
FE1FFE
FE1FFE
FE1FFE
FE1FFE
FE00FE
FE00FE
FE00FE
FE00FE
FF01FE
7F83FE
7FFFFE
3FFFFE
1FFFFE
0FFF9E
03FE1E
ENDCHAR
STARTCHAR 0048
ENCODING 72
SWIDTH 600 0
DWIDTH 25 0
BBX 21 29 2 0
BITMAP
FE03F8
FE03F8
FE03F8
FE03F8
FE03F8
FE03F8
FE03F8
FE03F8
FE03F8
FE03F8
FE03F8
FE03F8
FFFFF8
FFFFF8
FFFFF8
FFFFF8
FFFFF8
FE03F8
FE03F8
FE03F8
FE03F8
FE03F8
FE03F8
FE03F8
FE03F8
FE03F8
FE03F8
FE03F8
FE03F8
ENDCHAR
STARTCHAR 0049
ENCODING 73
SWIDTH 600 0
DWIDTH 25 0
BBX 19 29 3 0
BITMAP
FFFFE0
FFFFE0
FFFFE0
FFFFE0
FFFFE0
03F800
03F800
03F800
03F800
03F800
03F800
03F800
03F800
03F800
03F800
03F800
03F800
03F800
03F800
03F800
03F800
03F800
03F800
03F800
FFFFE0
FFFFE0
FFFFE0
FFFFE0
FFFFE0
ENDCHAR
STARTCHAR 004A
ENCODING 74
SWIDTH 600 0
DWIDTH 25 0
BBX 19 29 3 0
BITMAP
000FE0
000FE0
000FE0
000FE0
000FE0
000FE0
000FE0
000FE0
000FE0
000FE0
000FE0
000FE0
000FE0
000FE0
000FE0
000FE0
000FE0
000FE0
000FE0
FC0FE0
FC0FE0
FC0FE0
FE0FE0
FE1FE0
FFFFE0
7FFFC0
3FFF80
1FFF00
0FFE00
ENDCHAR
STARTCHAR 004B
ENCODING 75
SWIDTH 600 0
DWIDTH 25 0
BBX 23 29 2 0
BITMAP
FE01FC
FE01FC
FE03F8
FE07F8
FE07F0
FE0FE0
FE0FE0
FE1FC0
FE3FC0
FE3F80
FE7F80
FE7F00
FEFF00
FFFE00
FFFE00
FFFE00
FFFF00
FFFF00
FFFF80
FFBF80
FF3FC0
FE1FE0
FE1FE0
FE0FF0
FE07F0
FE07F8
FE03F8
FE03FC
FE01FE
ENDCHAR
STARTCHAR 004C
ENCODING 76
SWIDTH 600 0
DWIDTH 25 0
BBX 20 29 3 0
BITMAP
FE0000
FE0000
FE0000
FE0000
FE0000
FE0000
FE0000
FE0000
FE0000
FE0000
FE0000
FE0000
FE0000
FE0000
FE0000
FE0000
FE0000
FE0000
FE0000
FE0000
FE0000
FE0000
FE0000
FFFFE0
FFFFE0
FFFFE0
FFFFE0
FFFFE0
FFFFF0
ENDCHAR
STARTCHAR 004D
ENCODING 77
SWIDTH 600 0
DWIDTH 25 0
BBX 22 29 2 0
BITMAP
FF07FC
FF07FC
FF07FC
FF07FC
FF07FC
FF8FFC
FF8FFC
FF8FFC
FF8FFC
FF8FFC
FF8FFC
FF8FFC
FBDFFC
FBDFFC
FBDDFC
FBDDFC
FBDDFC
FBDDFC
FBDDFC
F9FDFC
F9FDFC
F9FDFC
F9F9FC
F9F9FC
F9F9FC
F9F9FC
F9F9FC
F8F9FC
F8F9FC
ENDCHAR
STARTCHAR 004E
ENCODING 78
SWIDTH 600 0
DWIDTH 25 0
BBX 21 29 2 0
BITMAP
FE03F8
FE03F8
FF03F8
FF03F8
FF83F8
FF83F8
FFC3F8
FFC3F8
FFE3F8
FFE3F8
FFF3F8
FFF3F8
FFF3F8
FFFBF8
FFFBF8
FEFFF8
FEFFF8
FE7FF8
FE7FF8
FE3FF8
FE3FF8
FE1FF8
FE1FF8
FE0FF8
FE0FF8
FE07F8
FE07F8
FE03F8
FE03F8
ENDCHAR
STARTCHAR 004F
ENCODING 79
SWIDTH 600 0
DWIDTH 25 0
BBX 23 29 1 0
BITMAP
01FF00
07FFC0
1FFFF0
3FFFF8
3FFFF8
7FC7FC
7F01FC
FE00FE
FE00FE
FE00FE
FE00FE
FE00FE
FE00FE
FE00FE
FE00FE
FE00FE
FE00FE
FE00FE
FE00FE
FE00FE
FE00FE
FE00FE
FF01FE
7F83FC
7FFFFC
3FFFF8
1FFFF0
0FFFE0
03FF80
ENDCHAR
STARTCHAR 0050
ENCODING 80
SWIDTH 600 0
DWIDTH 25 0
BBX 23 29 2 0
BITMAP
FFFE00
FFFFC0
FFFFF0
FFFFF8
FFFFF8
FFFFFC
FE03FC
FE01FC
FE01FE
FE01FE
FE01FC
FE01FC
FE03FC
FFFFFC
FFFFF8
FFFFF0
FFFFE0
FFFF80
FE0000
FE0000
FE0000
FE0000
FE0000
FE0000
FE0000
FE0000
FE0000
FE0000
FE0000
ENDCHAR
STARTCHAR 0051
ENCODING 81
SWIDTH 600 0
DWIDTH 25 0
BBX 24 35 1 -6
BITMAP
01FF00
07FFC0
1FFFF0
3FFFF8
3FFFF8
7FC7FC
7F01FC
FE00FE
FE00FE
FE00FE
FE00FE
FE00FE
FE00FE
FE00FE
FE00FE
FE00FE
FE00FE
FE00FE
FE00FE
FE00FE
FE00FE
FE00FE
FF01FE
7F83FC
7FFFFC
3FFFF8
1FFFF0
0FFFE0
03FF80
007F00
007F81
003FFF
003FFF
001FFF
0007FE
ENDCHAR
STARTCHAR 0052
ENCODING 82
SWIDTH 600 0
DWIDTH 25 0
BBX 24 29 2 0
BITMAP
FFFE00
FFFFC0
FFFFF0
FFFFF8
FFFFF8
FFFFFC
FE03FC
FE01FC
FE01FC
FE01FC
FE01FC
FE01FC
FE03F8
FFFFF0
FFFFE0
FFFFC0
FFFFF0
FFFFF0
FE0FF8
FE03F8
FE03FC
FE01FC
FE01FC
FE01FC
FE01FC
FE01FC
FE01FE
FE00FF
FE007F
ENDCHAR
STARTCHAR 0053
ENCODING 83
SWIDTH 600 0
DWIDTH 25 0
BBX 23 29 1 0
BITMAP
00FF00
07FFE0
1FFFF0
3FFFF8
7FFFFC
7F83FC
7F00FC
FF00FE
FF00FE
FF0000
7FC000
7FFC00
7FFF80
3FFFF0
1FFFF8
07FFFC
01FFFC
001FFE
0003FE
0001FE
FC00FE
FC00FE
FE00FE
FF03FE
7FFFFC
7FFFFC
3FFFF8
0FFFF0
03FF80
ENDCHAR
STARTCHAR 0054
ENCODING 84
SWIDTH 600 0
DWIDTH 25 0
BBX 23 29 1 0
BITMAP
FFFFFE
FFFFFE
FFFFFE
FFFFFE
FFFFFE
FFFFFE
00FE00
00FE00
00FE00
00FE00
00FE00
00FE00
00FE00
00FE00
00FE00
00FE00
00FE00
00FE00
00FE00
00FE00
00FE00
00FE00
00FE00
00FE00
00FE00
00FE00
00FE00
00FE00
00FE00
ENDCHAR
STARTCHAR 0055
ENCODING 85
SWIDTH 600 0
DWIDTH 25 0
BBX 21 29 2 0
BITMAP
FE01F8
FE01F8
FE01F8
FE01F8
FE01F8
FE01F8
FE01F8
FE01F8
FE01F8
FE01F8
FE01F8
FE01F8
FE01F8
FE01F8
FE01F8
FE01F8
FE01F8
FE01F8
FE01F8
FE01F8
FE03F8
FE03F8
FE03F8
FF07F8
7FFFF0
7FFFF0
3FFFE0
1FFFC0
07FF00
ENDCHAR
STARTCHAR 0056
ENCODING 86
SWIDTH 600 0
DWIDTH 25 0
BBX 25 29 0 0
BITMAP
FE003F80
7E003F80
7F003F00
7F007F00
7F007F00
3F007E00
3F807E00
3F807E00
3F80FE00
1F80FC00
1FC0FC00
1FC0FC00
0FC1F800
0FC1F800
0FE1F800
0FE1F800
07E3F000
07E3F000
07F3F000
03F3F000
03F3E000
03F7E000
03FFE000
01FFC000
01FFC000
01FFC000
01FFC000
00FF8000
00FF8000
ENDCHAR
STARTCHAR 0057
ENCODING 87
SWIDTH 600 0
DWIDTH 25 0
BBX 25 29 0 0
BITMAP
FC1E0F80
FC3E0F80
FC3E0F80
FC3F1F80
FC3F1F80
7C3F1F00
7E3F1F00
7E3F1F00
7E3F1F00
7E7F1F00
7E7F1F00
7E7F9F00
7E77BF00
3E77BF00
3F77BE00
3F77BE00
3FF7BE00
3FF7BE00
3FF7BE00
3FE3FE00
3FE3FE00
3FE3FE00
1FE3FC00
1FE3FC00
1FE3FC00
1FE3FC00
1FE3FC00
1FC1FC00
1FC1FC00
ENDCHAR
STARTCHAR 0058
ENCODING 88
SWIDTH 600 0
DWIDTH 25 0
BBX 25 29 0 0
BITMAP
7F807F00
3F807E00
3FC0FE00
1FC0FC00
1FE1FC00
0FE1F800
0FF3F800
07F3F000
07FFF000
03FFE000
03FFE000
01FFC000
01FFC000
00FF8000
00FF8000
01FFC000
01FFC000
03FFE000
03FFE000
07FFF000
07E7F000
0FE7F800
0FC3F800
1FC3FC00
1F81FE00
3F81FE00
7F80FF00
7F00FF00
FF007F80
ENDCHAR
STARTCHAR 0059
ENCODING 89
SWIDTH 600 0
DWIDTH 25 0
BBX 25 29 0 0
BITMAP
FF003F80
7F007F00
7F807F00
3F80FE00
3FC0FE00
1FC0FC00
1FC1FC00
0FE1F800
0FE3F800
07F3F000
07F7F000
03FFF000
03FFE000
01FFE000
01FFC000
01FFC000
00FF8000
00FF8000
007F0000
007F0000
007F0000
007F0000
007F0000
007F0000
007F0000
007F0000
007F0000
007F0000
007F0000
ENDCHAR
STARTCHAR 005A
ENCODING 90
SWIDTH 600 0
DWIDTH 25 0
BBX 23 29 1 0
BITMAP
7FFFFE
7FFFFE
7FFFFE
7FFFFC
7FFFF8
7FFFF8
000FF0
000FF0
001FE0
001FC0
003FC0
007F80
007F80
00FF00
00FE00
01FE00
03FC00
03FC00
07F800
0FF000
0FF000
1FE000
1FE000
3FC000
7FFFFE
7FFFFE
FFFFFE
FFFFFE
FFFFFE
ENDCHAR
STARTCHAR 005B
ENCODING 91
SWIDTH 600 0
DWIDTH 25 0
BBX 9 36 10 -7
BITMAP
FF80
FF80
FF80
F800
F800
F800
F800
F800
F800
F800
F800
F800
F800
F800
F800
F800
F800
F800
F800
F800
F800
F800
F800
F800
F800
F800
F800
F800
F800
F800
F800
F800
F800
FF80
FF80
FF80
ENDCHAR
STARTCHAR 005C
ENCODING 92
SWIDTH 600 0
DWIDTH 25 0
BBX 25 36 0 -7
BITMAP
F8000000
7C000000
7C000000
3E000000
1E000000
1F000000
0F000000
0F800000
07800000
07C00000
03E00000
03E00000
01F00000
00F00000
00F80000
00780000
007C0000
003C0000
003E0000
001E0000
001F0000
000F8000
00078000
0007C000
0003C000
0003E000
0001E000
0001F000
0000F000
0000F800
00007C00
00007C00
00003E00
00001E00
00001F00
00000F80
ENDCHAR
STARTCHAR 005D
ENCODING 93
SWIDTH 600 0
DWIDTH 25 0
BBX 9 36 6 -7
BITMAP
FF80
FF80
FF80
0F80
0F80
0F80
0F80
0F80
0F80
0F80
0F80
0F80
0F80
0F80
0F80
0F80
0F80
0F80
0F80
0F80
0F80
0F80
0F80
0F80
0F80
0F80
0F80
0F80
0F80
0F80
0F80
0F80
0F80
FF80
FF80
FF80
ENDCHAR
STARTCHAR 005E
ENCODING 94
SWIDTH 600 0
DWIDTH 25 0
BBX 21 21 2 0
BITMAP
00F800
01FC00
01FC00
03FE00
03FE00
03DE00
07DF00
07DF00
0F8F00
0F8F80
0F8780
1F07C0
1F07C0
1E03C0
3E03E0
3E03E0
7C01F0
7C01F0
7C00F0
F800F8
F800F8
ENDCHAR
STARTCHAR 005F
ENCODING 95
SWIDTH 600 0
DWIDTH 25 0
BBX 21 4 2 -6
BITMAP
FFFFF8
FFFFF8
FFFFF8
FFFFF8
ENDCHAR
STARTCHAR 0060
ENCODING 96
SWIDTH 600 0
DWIDTH 25 0
BBX 9 8 8 24
BITMAP
FC00
7C00
7E00
3E00
1F00
1F00
0F80
0780
ENDCHAR
STARTCHAR 0061
ENCODING 97
SWIDTH 600 0
DWIDTH 25 0
BBX 22 22 2 0
BITMAP
01F000
0FFF00
1FFFC0
3FFFE0
7F9FE0
7E07F0
7E07F0
0007F0
0007F0
01FFF0
0FFFF0
3FFFF0
7FE7F0
7E07F0
FE07F0
FE07F0
FE07F0
FE0FF0
FFFFFC
7FFFFC
7FFBFC
1FE1FC
ENDCHAR
STARTCHAR 0062
ENCODING 98
SWIDTH 600 0
DWIDTH 25 0
BBX 20 30 3 0
BITMAP
FC0000
FC0000
FC0000
FC0000
FC0000
FC0000
FC0000
FC0000
FC3C00
FCFF80
FFFFC0
FFFFE0
FFFFE0
FF07F0
FE07F0
FE03F0
FC03F0
FC03F0
FC03F0
FC03F0
FC03F0
FC03F0
FC03F0
FE03F0
FE07F0
FF0FE0
FFFFE0
FFFFC0
FDFF80
F8FF00
ENDCHAR
STARTCHAR 0063
ENCODING 99
SWIDTH 600 0
DWIDTH 25 0
BBX 20 22 2 0
BITMAP
00F800
07FF00
0FFF80
3FFFC0
3FDFE0
7F07E0
7E03F0
FE03F0
FE03F0
FE0000
FE0000
FE0000
FE0000
FE01F0
FE03F0
FE03F0
7E03F0
7F07E0
3FFFE0
1FFFC0
0FFF80
03FE00
ENDCHAR
STARTCHAR 0064
ENCODING 100
SWIDTH 600 0
DWIDTH 25 0
BBX 20 30 2 0
BITMAP
0003F0
0003F0
0003F0
0003F0
0003F0
0003F0
0003F0
0003F0
01C3F0
0FFBF0
1FFFF0
3FFFF0
7FFFF0
7E0FF0
FE07F0
FC07F0
FC07F0
FC03F0
FC03F0
FC03F0
FC03F0
FC03F0
FC07F0
FC07F0
FE07F0
FF0FF0
7FFFF0
3FFFF0
1FFFF0
0FF1F0
ENDCHAR
STARTCHAR 0065
ENCODING 101
SWIDTH 600 0
DWIDTH 25 0
BBX 21 22 2 0
BITMAP
007800
07FF00
1FFFC0
3FFFE0
3FDFF0
7F07F0
7E03F8
FE03F8
FE01F8
FFFFF8
FFFFF8
FFFFF8
FFFFF8
FE0000
FE01F8
FE01F8
7E03F8
7F03F0
3FFFF0
3FFFE0
1FFFC0
07FF00
ENDCHAR
STARTCHAR 0066
ENCODING 102
SWIDTH 600 0
DWIDTH 25 0
BBX 20 30 3 0
BITMAP
003FF0
00FFF0
01FFF0
03FFF0
03FC10
03F800
07F000
07F000
07F000
FFFFE0
FFFFE0
FFFFE0
FFFFE0
FFFFE0
07F000
07F000
07F000
07F000
07F000
07F000
07F000
07F000
07F000
07F000
07F000
FFFFF0
FFFFF0
FFFFF0
FFFFF0
FFFFF0
ENDCHAR
STARTCHAR 0067
ENCODING 103
SWIDTH 600 0
DWIDTH 25 0
BBX 24 33 1 -8
BITMAP
00003F
00003E
00007E
003CFC
07FFF8
0FFFE0
1FFFF0
3FC3F8
3F81F8
3F01F8
3F01F8
3F01F8
1F83F8
1FFFF0
0FFFF0
07FFC0
1FFE00
3F0000
3E0000
7F0000
3FFFF0
3FFFFC
1FFFFC
1FFFFE
7FFFFE
7C007E
FC007F
FC007E
FC007E
7FFFFE
7FFFFC
3FFFF8
0FFFE0
ENDCHAR
STARTCHAR 0068
ENCODING 104
SWIDTH 600 0
DWIDTH 25 0
BBX 19 30 3 0
BITMAP
FC0000
FC0000
FC0000
FC0000
FC0000
FC0000
FC0000
FC0000
FC1C00
FCFF80
FDFFC0
FFFFC0
FFFFE0
FF1FE0
FE0FE0
FE07E0
FC07E0
FC07E0
FC07E0
FC07E0
FC07E0
FC07E0
FC07E0
FC07E0
FC07E0
FC07E0
FC07E0
FC07E0
FC07E0
FC07E0
ENDCHAR
STARTCHAR 0069
ENCODING 105
SWIDTH 600 0
DWIDTH 25 0
BBX 21 30 3 0
BITMAP
00F800
00F800
00F800
00F800
00F800
000000
000000
000000
000000
FFFC00
FFFC00
FFFC00
FFFC00
FFFC00
00FC00
00FC00
00FC00
00FC00
00FC00
00FC00
00FC00
00FC00
00FC00
00FC00
00FC00
FFFFF8
FFFFF8
FFFFF8
FFFFF8
FFFFF8
ENDCHAR
STARTCHAR 006A
ENCODING 106
SWIDTH 600 0
DWIDTH 25 0
BBX 14 38 3 -8
BITMAP
00F8
00F8
00F8
00F8
00F8
0000
0000
0000
0000
FFFC
FFFC
FFFC
FFFC
FFFC
00FC
00FC
00FC
00FC
00FC
00FC
00FC
00FC
00FC
00FC
00FC
00FC
00FC
00FC
00FC
00FC
00FC
01FC
81FC
FFFC
FFF8
FFF0
FFE0
0F80
ENDCHAR
STARTCHAR 006B
ENCODING 107
SWIDTH 600 0
DWIDTH 25 0
BBX 21 30 3 0
BITMAP
FC0000
FC0000
FC0000
FC0000
FC0000
FC0000
FC0000
FC0000
FC0008
FC07F0
FC0FF0
FC1FE0
FC3FC0
FC3F80
FC7F00
FCFE00
FDFE00
FDFC00
FFF800
FFFC00
FFFE00
FFFE00
FFFF00
FF7F80
FE3F80
FC3FC0
FC1FE0
FC0FE0
FC0FF0
FC07F8
ENDCHAR
STARTCHAR 006C
ENCODING 108
SWIDTH 600 0
DWIDTH 25 0
BBX 20 30 3 0
BITMAP
FFF800
FFF800
FFF800
FFF800
FFF800
01F800
01F800
01F800
01F800
01F800
01F800
01F800
01F800
01F800
01F800
01F800
01F800
01F800
01F800
01F800
01F800
01F800
01F800
01F800
01F800
FFFFF0
FFFFF0
FFFFF0
FFFFF0
FFFFF0
ENDCHAR
STARTCHAR 006D
ENCODING 109
SWIDTH 600 0
DWIDTH 25 0
BBX 21 22 2 0
BITMAP
01C1C0
E7E3F0
FFF7F8
FFFFF8
FFFFF8
FDFDF8
F8F8F8
F8F8F8
F8F8F8
F8F8F8
F8F8F8
F8F8F8
F8F8F8
F8F8F8
F8F8F8
F8F8F8
F8F8F8
F8F8F8
F8F8F8
F8F8F8
F8F8F8
F8F8F8
ENDCHAR
STARTCHAR 006E
ENCODING 110
SWIDTH 600 0
DWIDTH 25 0
BBX 19 22 3 0
BITMAP
003800
F9FF80
FFFFC0
FFFFC0
FFFFE0
FF1FE0
FE0FE0
FE07E0
FC07E0
FC07E0
FC07E0
FC07E0
FC07E0
FC07E0
FC07E0
FC07E0
FC07E0
FC07E0
FC07E0
FC07E0
FC07E0
FC07E0
ENDCHAR
STARTCHAR 006F
ENCODING 111
SWIDTH 600 0
DWIDTH 25 0
BBX 21 22 2 0
BITMAP
00F800
07FF00
1FFFC0
3FFFE0
3FDFE0
7F07F0
FE03F8
FE03F8
FE03F8
FE03F8
FE03F8
FE03F8
FE03F8
FE03F8
FE03F8
FE03F8
7E03F0
7F07F0
3FFFE0
1FFFC0
0FFF80
03FF00
ENDCHAR
STARTCHAR 0070
ENCODING 112
SWIDTH 600 0
DWIDTH 25 0
BBX 20 30 3 -8
BITMAP
003C00
F9FF80
FFFFC0
FFFFE0
FFFFE0
FF07F0
FE07F0
FE03F0
FC03F0
FC03F0
FC03F0
FC03F0
FC03F0
FC03F0
FC03F0
FE03F0
FE07F0
FF0FE0
FFFFE0
FFFFC0
FDFF80
FCFF00
FC0000
FC0000
FC0000
FC0000
FC0000
FC0000
FC0000
FC0000
ENDCHAR
STARTCHAR 0071
ENCODING 113
SWIDTH 600 0
DWIDTH 25 0
BBX 20 30 2 -8
BITMAP
01C000
0FF9F0
1FFFF0
3FFFF0
7FFFF0
7E0FF0
FE07F0
FC07F0
FC03F0
FC03F0
FC03F0
FC03F0
FC03F0
FC03F0
FC03F0
FC07F0
FE07F0
7F0FF0
7FFFF0
3FFFF0
1FFBF0
0FF3F0
0003F0
0003F0
0003F0
0003F0
0003F0
0003F0
0003F0
0003F0
ENDCHAR
STARTCHAR 0072
ENCODING 114
SWIDTH 600 0
DWIDTH 25 0
BBX 22 22 2 0
BITMAP
000380
FFCFF0
FFDFF8
FFFFF8
FFFFFC
FFF1FC
0FE0FC
0FE0FC
0FE0FC
0FE000
0FE000
0FE000
0FE000
0FE000
0FE000
0FE000
0FE000
FFFFE0
FFFFE0
FFFFE0
FFFFE0
FFFFE0
ENDCHAR
STARTCHAR 0073
ENCODING 115
SWIDTH 600 0
DWIDTH 25 0
BBX 21 22 2 0
BITMAP
00F800
0FFF00
1FFFC0
3FFFE0
7F9FE0
7E03F0
7E03F0
7E0000
7FE000
7FFF00
3FFFC0
1FFFE0
0FFFF0
00FFF0
0007F8
FC01F8
FC01F8
7E03F0
7FFFF0
3FFFE0
1FFFC0
07FF00
ENDCHAR
STARTCHAR 0074
ENCODING 116
SWIDTH 600 0
DWIDTH 25 0
BBX 21 28 2 0
BITMAP
00F000
01F000
01F000
01F000
03F000
03F000
03F000
FFFFF8
FFFFF8
FFFFF8
FFFFF8
FFFFF8
07F000
07F000
07F000
07F000
07F000
07F000
07F000
07F000
07F000
07F000
07F808
03FFF8
03FFF8
01FFF8
00FFF8
007FF0
ENDCHAR
STARTCHAR 0075
ENCODING 117
SWIDTH 600 0
DWIDTH 25 0
BBX 22 21 2 0
BITMAP
FE03F0
FE03F0
FE03F0
FE03F0
FE03F0
FE03F0
FE03F0
FE03F0
FE03F0
FE03F0
FE03F0
FE03F0
FE03F0
FE03F0
FE07F0
FF07F0
7F9FF0
7FFFFC
7FFFFC
3FFDFC
0FF1FC
ENDCHAR
STARTCHAR 0076
ENCODING 118
SWIDTH 600 0
DWIDTH 25 0
BBX 23 21 1 0
BITMAP
FF00FE
7F00FC
7F01FC
3F81F8
3F81F8
3F83F8
1F83F0
1FC3F0
1FC3F0
0FC7E0
0FE7E0
0FE7E0
07EFC0
07FFC0
07FFC0
03FF80
03FF80
01FF00
01FF00
01FF00
00FE00
ENDCHAR
STARTCHAR 0077
ENCODING 119
SWIDTH 600 0
DWIDTH 25 0
BBX 25 21 0 0
BITMAP
F83E0F80
F83F0F80
FC7F1F80
7C7F1F00
7C7F1F00
7C7F1F00
7C7F1F00
7C7F9F00
3EFFBE00
3EF7BE00
3EF7BE00
3EF7BE00
3EF7BE00
3FF3FE00
1FE3FC00
1FE3FC00
1FE3FC00
1FE3FC00
1FE3FC00
1FE1FC00
0FC1F800
ENDCHAR
STARTCHAR 0078
ENCODING 120
SWIDTH 600 0
DWIDTH 25 0
BBX 23 21 1 0
BITMAP
7F81FE
3F83F8
3FC3F8
1FC7F0
0FE7E0
0FFFE0
07FFC0
03FF80
03FF80
01FF00
01FF00
03FF80
03FF80
07FFC0
0FEFE0
0FCFE0
1FC7F0
3F87F8
3F83F8
7F01FC
FE01FE
ENDCHAR
STARTCHAR 0079
ENCODING 121
SWIDTH 600 0
DWIDTH 25 0
BBX 23 29 1 -8
BITMAP
FF00FE
7F00FC
7F01FC
3F81F8
3F81F8
1F83F0
1FC3F0
1FC3F0
0FC7E0
0FE7E0
07E7E0
07EFC0
07FFC0
03FF80
03FF80
01FF80
01FF00
01FF00
00FF00
00FE00
00FE00
00FC00
00FC00
01F800
3FF800
3FF000
3FE000
3FC000
1E0000
ENDCHAR
STARTCHAR 007A
ENCODING 122
SWIDTH 600 0
DWIDTH 25 0
BBX 17 21 4 0
BITMAP
FFFF80
FFFF80
FFFF80
FFFF00
00FE00
00FE00
01FC00
03FC00
03F800
07F000
07F000
0FE000
1FE000
1FC000
3F8000
3F8000
7F0000
FFFF80
FFFF80
FFFF80
FFFF80
ENDCHAR
STARTCHAR 007B
ENCODING 123
SWIDTH 600 0
DWIDTH 25 0
BBX 11 36 7 -7
BITMAP
01E0
07E0
0FE0
1F80
1F00
1F00
1F00
1F00
1F00
1F00
1F00
1F00
1F00
1F00
1F00
3E00
FE00
FC00
FC00
FE00
3E00
1F00
1F00
1F00
1F00
1F00
1F00
1F00
1F00
1F00
1F00
1F00
1F80
0FE0
07E0
01E0
ENDCHAR
STARTCHAR 007C
ENCODING 124
SWIDTH 600 0
DWIDTH 25 0
BBX 5 38 10 -8
BITMAP
F8
F8
F8
F8
F8
F8
F8
F8
F8
F8
F8
F8
F8
F8
F8
F8
F8
F8
F8
F8
F8
F8
F8
F8
F8
F8
F8
F8
F8
F8
F8
F8
F8
F8
F8
F8
F8
F8
ENDCHAR
STARTCHAR 007D
ENCODING 125
SWIDTH 600 0
DWIDTH 25 0
BBX 11 36 7 -7
BITMAP
F000
FC00
FE00
3F00
1F00
1F00
1F00
1F00
1F00
1F00
1F00
1F00
1F00
1F00
1F00
0F80
0FE0
07E0
07E0
0FE0
0F80
1F00
1F00
1F00
1F00
1F00
1F00
1F00
1F00
1F00
1F00
1F00
3F00
FE00
FC00
F000
ENDCHAR
STARTCHAR 007E
ENCODING 126
SWIDTH 600 0
DWIDTH 25 0
BBX 23 9 1 8
BITMAP
000002
0F8002
3FF006
FFFE3E
FFFFFE
FDFFFE
E01FF8
8007F0
800000
ENDCHAR
STARTCHAR 00A0
ENCODING 160
SWIDTH 600 0
DWIDTH 25 0
BBX 0 0 0 0
BITMAP
ENDCHAR
STARTCHAR 00A1
ENCODING 161
SWIDTH 600 0
DWIDTH 25 0
BBX 7 28 9 -7
BITMAP
FE
FE
FE
FE
FE
FE
00
00
7C
7C
7C
7C
7C
7C
7C
7C
7C
7C
FE
FE
FE
FE
FE
FE
FE
FE
FE
FE
ENDCHAR
STARTCHAR 00A2
ENCODING 162
SWIDTH 600 0
DWIDTH 25 0
BBX 21 29 2 0
BITMAP
007800
007800
007800
007800
03FF00
07FF80
1FFFE0
3FFFE0
3F87F0
7F03F0
7F01F8
7E01F8
FE01F8
FE0000
FE0000
FE0000
FE0000
FE01F8
7E01F8
7F01F0
3F83F0
3FEFF0
1FFFE0
0FFFC0
07FF80
00FC00
007800
007800
007800
ENDCHAR
STARTCHAR 00A3
ENCODING 163
SWIDTH 600 0
DWIDTH 25 0
BBX 23 29 1 0
BITMAP
007F80
01FFE0
03FFF8
07FFFC
0FFFFC
0FE1FE
1FC0FE
1FC0FE
1FC07E
1FC000
1FC000
1FC000
FFFE00
FFFE00
FFFE00
FFFE00
FFFE00
1FC000
1FC000
1FC000
1F8000
1F8000
1F8000
1F8000
FFFFF8
FFFFF8
FFFFF8
FFFFF8
FFFFF8
ENDCHAR
STARTCHAR 00A4
ENCODING 164
SWIDTH 600 0
DWIDTH 25 0
BBX 21 22 2 3
BITMAP
200020
63FE70
FFFFF8
7FFFF0
3FDFE0
3E03E0
7C01F0
7800F0
F800F8
F000F8
F00078
F00078
F800F8
F800F8
7800F0
7C01F0
3E03E0
7FFFE0
FFFFF0
F7FF78
61FC30
200020
ENDCHAR
STARTCHAR 00A5
ENCODING 165
SWIDTH 600 0
DWIDTH 25 0
BBX 25 29 0 0
BITMAP
FF003F80
7F007F00
7F807F00
3F80FE00
3FC0FE00
1FC0FC00
1FC1FC00
0FE1F800
0FE3F800
07F3F000
7FF7FF00
7FFFFF00
7FFFFF00
7FFFFF00
01FFC000
01FFC000
7FFFFF00
7FFFFF00
7FFFFF00
007F0000
007F0000
007F0000
007F0000
007F0000
007F0000
007F0000
007F0000
007F0000
007F0000
ENDCHAR
STARTCHAR 00A6
ENCODING 166
SWIDTH 600 0
DWIDTH 25 0
BBX 5 38 10 -8
BITMAP
F8
F8
F8
F8
F8
F8
F8
F8
F8
F8
F8
F8
F8
F8
F8
00
00
00
00
00
00
00
00
F8
F8
F8
F8
F8
F8
F8
F8
F8
F8
F8
F8
F8
F8
F8
ENDCHAR
STARTCHAR 00A7
ENCODING 167
SWIDTH 600 0
DWIDTH 25 0
BBX 20 37 3 -8
BITMAP
07F800
1FFF00
3FFF80
7FFFC0
FF0FC0
FC07E0
FC07E0
FC0000
FE0000
7F8000
7FE000
3FFC00
1FFF00
7FFF80
7DFFC0
F83FE0
F80FE0
F807E0
F803F0
FC03E0
FF03E0
FFC3E0
7FF7C0
3FFF80
0FFF00
03FF80
00FFC0
001FC0
000FE0
0007E0
FC07E0
FC07E0
7F1FC0
7FFFC0
3FFF80
0FFE00
00E000
ENDCHAR
STARTCHAR 00A8
ENCODING 168
SWIDTH 600 0
DWIDTH 25 0
BBX 15 5 5 25
BITMAP
F83E
F83E
F83E
F83E
F83E
ENDCHAR
STARTCHAR 00A9
ENCODING 169
SWIDTH 600 0
DWIDTH 25 0
BBX 25 29 0 0
BITMAP
007F0000
03FFE000
07C1F000
0F007800
1C001C00
38000E00
387F0E00
70FFC700
71FFC700
63E3E300
63C1E300
E3C1E380
E3C1E380
E3C01380
E3C00380
E3C00380
E3C0F380
E3C0E380
63C1E300
63E1E300
71FFE700
71FFC700
387F8E00
38080E00
1C001C00
0E003800
0F80F000
03FFE000
00FF8000
ENDCHAR
STARTCHAR 00AA
ENCODING 170
SWIDTH 600 0
DWIDTH 25 0
BBX 14 13 6 16
BITMAP
1FC0
7FE0
FFF0
F0F0
00F0
07F0
7FF0
FCF0
F0F0
F0F0
F9F4
FFFC
7E7C
ENDCHAR
STARTCHAR 00AB
ENCODING 171
SWIDTH 600 0
DWIDTH 25 0
BBX 19 14 3 7
BITMAP
0F83E0
0F07C0
1F0F80
3E0F80
7E1F00
7C3F00
FC7E00
FC7E00
7C3F00
3E1F00
3E0F80
1F0F80
0F07C0
0F83E0
ENDCHAR
STARTCHAR 00AC
ENCODING 172
SWIDTH 600 0
DWIDTH 25 0
BBX 21 13 2 7
BITMAP
FFFFF8
FFFFF8
FFFFF8
FFFFF8
FFFFF8
FFFFF8
0000F8
0000F8
0000F8
0000F8
0000F8
0000F8
0000F8
ENDCHAR
STARTCHAR 00AD
ENCODING 173
SWIDTH 600 0
DWIDTH 25 0
BBX 11 5 7 9
BITMAP
FFE0
FFE0
FFE0
FFE0
FFE0
ENDCHAR
STARTCHAR 00AE
ENCODING 174
SWIDTH 600 0
DWIDTH 25 0
BBX 25 29 0 0
BITMAP
007F0000
03FFE000
07C1F000
0F007800
1C001C00
38000E00
3BFF8E00
73FFC700
73FFE700
63E3F300
63E1F300
E3E1F380
E3E1E380
E3FFE380
E3FF8380
E3FFC380
E3E7E380
E3E1E380
63E1E300
63E1E300
73E1E700
73E1F700
3BE0FE00
38002E00
1C001C00
0E003800
0F80F000
03FFE000
00FF8000
ENDCHAR
STARTCHAR 00AF
ENCODING 175
SWIDTH 600 0
DWIDTH 25 0
BBX 15 3 5 26
BITMAP
FFFE
FFFE
FFFE
ENDCHAR
STARTCHAR 00B0
ENCODING 176
SWIDTH 600 0
DWIDTH 25 0
BBX 13 13 6 16
BITMAP
0F80
3FE0
7FF0
78F0
F078
E038
E038
F078
F078
7FF0
3FE0
1FC0
0200
ENDCHAR
STARTCHAR 00B1
ENCODING 177
SWIDTH 600 0
DWIDTH 25 0
BBX 21 21 2 0
BITMAP
00F800
00F800
00F800
00F800
00F800
FFFFF8
FFFFF8
FFFFF8
FFFFF8
FFFFF8
00F800
00F800
00F800
00F800
00F800
000000
FFFFF8
FFFFF8
FFFFF8
FFFFF8
FFFFF8
ENDCHAR
STARTCHAR 00B2
ENCODING 178
SWIDTH 600 0
DWIDTH 25 0
BBX 11 16 7 18
BITMAP
0400
3F80
7FC0
FFE0
E1E0
E1E0
01E0
01E0
03C0
0F80
1F00
3E00
7800
FFE0
FFE0
FFE0
ENDCHAR
STARTCHAR 00B3
ENCODING 179
SWIDTH 600 0
DWIDTH 25 0
BBX 13 16 6 17
BITMAP
1FC0
3FE0
7FF0
70F0
00F0
00F0
0FE0
0FC0
0FF0
00F0
0070
F078
78F0
7FF0
3FE0
0F80
ENDCHAR
STARTCHAR 00B4
ENCODING 180
SWIDTH 600 0
DWIDTH 25 0
BBX 9 8 8 24
BITMAP
1F80
1F00
3F00
3E00
7C00
7C00
F800
F000
ENDCHAR
STARTCHAR 00B5
ENCODING 181
SWIDTH 600 0
DWIDTH 25 0
BBX 22 28 2 -7
BITMAP
FE03F0
FE03F0
FE03F0
FE03F0
FE03F0
FE03F0
FE03F0
FE03F0
FE03F0
FE03F0
FE03F0
FE03F0
FE03F0
FE03F0
FE07F0
FF07F0
FF9FF0
FFFFFC
FFFFFC
FFFDFC
FFF1FC
FE0000
FE0000
FE0000
FE0000
FE0000
FE0000
FE0000
ENDCHAR
STARTCHAR 00B6
ENCODING 182
SWIDTH 600 0
DWIDTH 25 0
BBX 21 36 1 -7
BITMAP
007FF8
07FFF8
0FFFF8
1FF1E0
3FF1E0
7FF1E0
7FF1E0
7FF1E0
7FF1E0
FFF1E0
7FF1E0
7FF1E0
7FF1E0
7FF1E0
3FF1E0
1FF1E0
0FF1E0
07F1E0
0071E0
0071E0
0071E0
0071E0
0071E0
0071E0
0071E0
0071E0
0071E0
0071E0
0071E0
0071E0
0071E0
0071E0
0071E0
0071E0
0071E0
0071E0
ENDCHAR
STARTCHAR 00B7
ENCODING 183
SWIDTH 600 0
DWIDTH 25 0
BBX 7 7 9 12
BITMAP
FE
FE
FE
FE
FE
FE
FE
ENDCHAR
STARTCHAR 00B8
ENCODING 184
SWIDTH 600 0
DWIDTH 25 0
BBX 9 8 8 -9
BITMAP
1E00
1F00
0780
0380
8380
FF80
FF00
3C00
ENDCHAR
STARTCHAR 00B9
ENCODING 185
SWIDTH 600 0
DWIDTH 25 0
BBX 10 15 7 18
BITMAP
0E00
3E00
FE00
FE00
0E00
0E00
0E00
0E00
0E00
0E00
0E00
0E00
FFC0
FFC0
FFC0
ENDCHAR
STARTCHAR 00BA
ENCODING 186
SWIDTH 600 0
DWIDTH 25 0
BBX 13 13 6 16
BITMAP
1FC0
3FE0
7FF0
F8F8
F078
F078
F078
F078
F078
F8F8
7DF0
3FE0
1FC0
ENDCHAR
STARTCHAR 00BB
ENCODING 187
SWIDTH 600 0
DWIDTH 25 0
BBX 19 14 3 7
BITMAP
F83E00
7C1F00
3E1F00
3F0F80
1F0FC0
1F87C0
0FC7E0
0FC7E0
1F87C0
1F0FC0
3E0F80
3E1F00
7C1E00
F83E00
ENDCHAR
STARTCHAR 00BC
ENCODING 188
SWIDTH 600 0
DWIDTH 25 0
BBX 25 29 0 0
BITMAP
00000780
06000F00
3E000E00
FE001E00
FE003C00
0E003800
0E007000
0E00F000
0E01E000
0E01C000
0E038000
0E078000
0E000000
FFE00000
FFE07000
FFE0F000
0000E600
0071E600
00E1CE00
01E1CE00
01C39E00
03839E00
07871E00
0F07FF80
1E07FF80
1C07FF80
3C001E00
78001E00
F0001E00
ENDCHAR
STARTCHAR 00BD
ENCODING 189
SWIDTH 600 0
DWIDTH 25 0
BBX 25 29 0 0
BITMAP
00000780
06000F00
3E000E00
FE001E00
FE003C00
0E007800
0E007000
0E00E000
0E01E000
0E01C000
0E038000
0E070000
0E000000
FFE01000
FFE0FE00
FFE1FF00
0003FF80
00738780
00E38780
01C00780
03C00F80
03801F00
07003E00
0F007C00
1E01F000
1C03E000
3C03FF80
7803FF80
F007FF80
ENDCHAR
STARTCHAR 00BE
ENCODING 190
SWIDTH 600 0
DWIDTH 25 0
BBX 25 29 0 0
BITMAP
3FC00780
7FE00F00
7FE00E00
F0F01E00
00F03C00
00E03800
0FE07000
0FC0F000
0FE1E000
00F1C000
00F38000
E0F78000
F1F00000
7FE00000
7FC07000
1F00F000
0000E600
0071E600
00E1CE00
01E1CE00
01C39E00
03839E00
07871E00
0F07FF80
1E07FF80
1C07FF80
3C001E00
78001E00
F0001E00
ENDCHAR
STARTCHAR 00BF
ENCODING 191
SWIDTH 600 0
DWIDTH 25 0
BBX 21 29 2 -8
BITMAP
01FC00
01FC00
01FC00
01FC00
01FC00
01FC00
000000
000000
01F800
01F800
01F800
01F800
03F800
07F000
1FE000
3FC000
7F8000
7F0000
FF0200
FE01F8
FE03F8
FE03F8
7F03F0
7F87F0
7FFFE0
3FFFC0
1FFF80
07FF00
007000
ENDCHAR
STARTCHAR 00C0
ENCODING 192
SWIDTH 600 0
DWIDTH 25 0
BBX 25 37 0 0
BITMAP
03F00000
01F00000
00F80000
007C0000
007E0000
003E0000
00000000
00000000
00FF8000
00FF8000
00FF8000
01FFC000
01FFC000
01FFC000
03FFE000
03F7E000
03F7E000
03E7E000
07E7F000
07E3F000
07E3F000
07C3F000
0FC3F800
0FC1F800
0FC1F800
1F81FC00
1FFFFC00
1FFFFC00
1FFFFC00
3FFFFE00
3FFFFE00
3F007E00
7F007F00
7F007F00
7E007F00
7E003F00
FE003F80
ENDCHAR
STARTCHAR 00C1
ENCODING 193
SWIDTH 600 0
DWIDTH 25 0
BBX 25 37 0 0
BITMAP
0007F000
0007E000
000FC000
001F8000
001F0000
003E0000
00000000
00000000
00FF8000
00FF8000
00FF8000
01FFC000
01FFC000
01FFC000
03FFE000
03F7E000
03F7E000
03E7E000
07E7F000
07E3F000
07E3F000
07C3F000
0FC3F800
0FC1F800
0FC1F800
1F81FC00
1FFFFC00
1FFFFC00
1FFFFC00
3FFFFE00
3FFFFE00
3F007E00
7F007F00
7F007F00
7E007F00
7E003F00
FE003F80
ENDCHAR
STARTCHAR 00C2
ENCODING 194
SWIDTH 600 0
DWIDTH 25 0
BBX 25 37 0 0
BITMAP
007F0000
00FF8000
01F7C000
01E3C000
03C1E000
07C1F000
00000000
00000000
00FF8000
00FF8000
00FF8000
01FFC000
01FFC000
01FFC000
03FFE000
03F7E000
03F7E000
03E7E000
07E7F000
07E3F000
07E3F000
07C3F000
0FC3F800
0FC1F800
0FC1F800
1F81FC00
1FFFFC00
1FFFFC00
1FFFFC00
3FFFFE00
3FFFFE00
3F007E00
7F007F00
7F007F00
7E007F00
7E003F00
FE003F80
ENDCHAR
STARTCHAR 00C3
ENCODING 195
SWIDTH 600 0
DWIDTH 25 0
BBX 25 37 0 0
BITMAP
01F03800
03FEF000
07FFF000
07FFF000
071FE000
0E038000
00000000
00000000
00FF8000
00FF8000
00FF8000
01FFC000
01FFC000
01FFC000
03FFE000
03F7E000
03F7E000
03E7E000
07E7F000
07E3F000
07E3F000
07C3F000
0FC3F800
0FC1F800
0FC1F800
1F81FC00
1FFFFC00
1FFFFC00
1FFFFC00
3FFFFE00
3FFFFE00
3F007E00
7F007F00
7F007F00
7E007F00
7E003F00
FE003F80
ENDCHAR
STARTCHAR 00C4
ENCODING 196
SWIDTH 600 0
DWIDTH 25 0
BBX 25 37 0 0
BITMAP
07C1F000
07C1F000
07C1F000
07C1F000
07C1F000
00000000
00000000
00000000
00FF8000
00FF8000
00FF8000
01FFC000
01FFC000
01FFC000
03FFE000
03F7E000
03F7E000
03E7E000
07E7F000
07E3F000
07E3F000
07C3F000
0FC3F800
0FC1F800
0FC1F800
1F81FC00
1FFFFC00
1FFFFC00
1FFFFC00
3FFFFE00
3FFFFE00
3F007E00
7F007F00
7F007F00
7E007F00
7E003F00
FE003F80
ENDCHAR
STARTCHAR 00C5
ENCODING 197
SWIDTH 600 0
DWIDTH 25 0
BBX 25 39 0 0
BITMAP
003E0000
007F0000
00E38000
00E38000
00E38000
00F78000
007F0000
003E0000
00000000
00000000
00FF8000
00FF8000
00FF8000
01FFC000
01FFC000
01FFC000
03FFE000
03F7E000
03F7E000
03E7E000
07E7F000
07E3F000
07E3F000
07C3F000
0FC3F800
0FC1F800
0FC1F800
1F81FC00
1FFFFC00
1FFFFC00
1FFFFC00
3FFFFE00
3FFFFE00
3F007E00
7F007F00
7F007F00
7E007F00
7E003F00
FE003F80
ENDCHAR
STARTCHAR 00C6
ENCODING 198
SWIDTH 600 0
DWIDTH 25 0
BBX 25 29 0 0
BITMAP
01FFFF80
01FFFF80
03FFFF00
03FFFF00
03FFFF00
03FFFF00
07EFC000
07EFC000
07EFC000
07EFC000
0FCFC000
0FCFC000
0FCFFE00
0FCFFE00
0FCFFE00
1F8FFE00
1F8FFE00
1F8FC000
1FFFC000
3FFFC000
3FFFC000
3FFFC000
3FFFC000
7F0FFF00
7F0FFF00
7E0FFF00
7E0FFF80
FE0FFF80
FE0FFF80
ENDCHAR
STARTCHAR 00C7
ENCODING 199
SWIDTH 600 0
DWIDTH 25 0
BBX 23 38 1 -9
BITMAP
01FF00
07FFC0
1FFFE0
3FFFF0
3FFFF8
7FC7F8
7F01FC
FF01FC
FE00FC
FE00FC
FE00FC
FE00FE
FE0000
FE0000
FE0000
FE0000
FE0000
FE0002
FE00FC
FE00FC
FE00FC
FE00FC
FF01FC
7F83F8
7FFFF8
3FFFF0
1FFFE0
0FFFC0
03FF80
000000
003C00
003E00
000F00
000700
010700
01FF00
01FE00
007800
ENDCHAR
STARTCHAR 00C8
ENCODING 200
SWIDTH 600 0
DWIDTH 25 0
BBX 20 37 3 0
BITMAP
1F8000
0FC000
07C000
03E000
01F000
00F800
000000
000000
FFFFF0
FFFFF0
FFFFF0
FFFFE0
FFFFE0
FFFFE0
FE0000
FE0000
FE0000
FE0000
FE0000
FE0000
FFFFC0
FFFFC0
FFFFC0
FFFFC0
FFFFC0
FE0000
FE0000
FE0000
FE0000
FE0000
FE0000
FFFFE0
FFFFE0
FFFFE0
FFFFF0
FFFFF0
FFFFF0
ENDCHAR
STARTCHAR 00C9
ENCODING 201
SWIDTH 600 0
DWIDTH 25 0
BBX 20 37 3 0
BITMAP
001F80
003F00
007E00
007C00
00F800
01F000
000000
000000
FFFFF0
FFFFF0
FFFFF0
FFFFE0
FFFFE0
FFFFE0
FE0000
FE0000
FE0000
FE0000
FE0000
FE0000
FFFFC0
FFFFC0
FFFFC0
FFFFC0
FFFFC0
FE0000
FE0000
FE0000
FE0000
FE0000
FE0000
FFFFE0
FFFFE0
FFFFE0
FFFFF0
FFFFF0
FFFFF0
ENDCHAR
STARTCHAR 00CA
ENCODING 202
SWIDTH 600 0
DWIDTH 25 0
BBX 20 37 3 0
BITMAP
03F800
03FC00
07FE00
0F9F00
1F0F80
3E07C0
000000
000000
FFFFF0
FFFFF0
FFFFF0
FFFFE0
FFFFE0
FFFFE0
FE0000
FE0000
FE0000
FE0000
FE0000
FE0000
FFFFC0
FFFFC0
FFFFC0
FFFFC0
FFFFC0
FE0000
FE0000
FE0000
FE0000
FE0000
FE0000
FFFFE0
FFFFE0
FFFFE0
FFFFF0
FFFFF0
FFFFF0
ENDCHAR
STARTCHAR 00CB
ENCODING 203
SWIDTH 600 0
DWIDTH 25 0
BBX 20 37 3 0
BITMAP
3E0F80
3E0F80
3E0F80
3E0F80
3E0F80
000000
000000
000000
FFFFF0
FFFFF0
FFFFF0
FFFFE0
FFFFE0
FFFFE0
FE0000
FE0000
FE0000
FE0000
FE0000
FE0000
FFFFC0
FFFFC0
FFFFC0
FFFFC0
FFFFC0
FE0000
FE0000
FE0000
FE0000
FE0000
FE0000
FFFFE0
FFFFE0
FFFFE0
FFFFF0
FFFFF0
FFFFF0
ENDCHAR
STARTCHAR 00CC
ENCODING 204
SWIDTH 600 0
DWIDTH 25 0
BBX 19 37 3 0
BITMAP
1F8000
0F8000
07C000
03E000
03F000
01F000
000000
000000
FFFFE0
FFFFE0
FFFFE0
FFFFE0
FFFFE0
03F800
03F800
03F800
03F800
03F800
03F800
03F800
03F800
03F800
03F800
03F800
03F800
03F800
03F800
03F800
03F800
03F800
03F800
03F800
FFFFE0
FFFFE0
FFFFE0
FFFFE0
FFFFE0
ENDCHAR
STARTCHAR 00CD
ENCODING 205
SWIDTH 600 0
DWIDTH 25 0
BBX 19 37 3 0
BITMAP
003F80
003F00
007E00
00FC00
00F800
01F000
000000
000000
FFFFE0
FFFFE0
FFFFE0
FFFFE0
FFFFE0
03F800
03F800
03F800
03F800
03F800
03F800
03F800
03F800
03F800
03F800
03F800
03F800
03F800
03F800
03F800
03F800
03F800
03F800
03F800
FFFFE0
FFFFE0
FFFFE0
FFFFE0
FFFFE0
ENDCHAR
STARTCHAR 00CE
ENCODING 206
SWIDTH 600 0
DWIDTH 25 0
BBX 19 37 3 0
BITMAP
03F800
07FC00
0FBE00
0F1E00
1E0F00
3E0F80
000000
000000
FFFFE0
FFFFE0
FFFFE0
FFFFE0
FFFFE0
03F800
03F800
03F800
03F800
03F800
03F800
03F800
03F800
03F800
03F800
03F800
03F800
03F800
03F800
03F800
03F800
03F800
03F800
03F800
FFFFE0
FFFFE0
FFFFE0
FFFFE0
FFFFE0
ENDCHAR
STARTCHAR 00CF
ENCODING 207
SWIDTH 600 0
DWIDTH 25 0
BBX 19 37 3 0
BITMAP
3E0F80
3E0F80
3E0F80
3E0F80
3E0F80
000000
000000
000000
FFFFE0
FFFFE0
FFFFE0
FFFFE0
FFFFE0
03F800
03F800
03F800
03F800
03F800
03F800
03F800
03F800
03F800
03F800
03F800
03F800
03F800
03F800
03F800
03F800
03F800
03F800
03F800
FFFFE0
FFFFE0
FFFFE0
FFFFE0
FFFFE0
ENDCHAR
STARTCHAR 00D0
ENCODING 208
SWIDTH 600 0
DWIDTH 25 0
BBX 25 29 0 0
BITMAP
3FFE0000
3FFFE000
3FFFF800
3FFFFC00
3FFFFE00
3FFFFE00
3F80FF00
3F807F00
3F807F00
3F803F80
3F803F80
3F803F80
FFFE3F80
FFFE3F80
FFFE3F80
FFFE3F80
FFFE3F80
3F803F80
3F803F80
3F803F80
3F807F80
3F807F00
3F80FF00
3F83FF00
3FFFFE00
3FFFFC00
3FFFF800
3FFFF000
3FFF8000
ENDCHAR
STARTCHAR 00D1
ENCODING 209
SWIDTH 600 0
DWIDTH 25 0
BBX 21 37 2 0
BITMAP
07C0E0
0FFBC0
1FFFC0
1FFFC0
1C7F80
380E00
000000
000000
FE03F8
FE03F8
FF03F8
FF03F8
FF83F8
FF83F8
FFC3F8
FFC3F8
FFE3F8
FFE3F8
FFF3F8
FFF3F8
FFF3F8
FFFBF8
FFFBF8
FEFFF8
FEFFF8
FE7FF8
FE7FF8
FE3FF8
FE3FF8
FE1FF8
FE1FF8
FE0FF8
FE0FF8
FE07F8
FE07F8
FE03F8
FE03F8
ENDCHAR
STARTCHAR 00D2
ENCODING 210
SWIDTH 600 0
DWIDTH 25 0
BBX 23 37 1 0
BITMAP
07E000
03E000
01F000
00F800
00FC00
007C00
000000
000000
01FF00
07FFC0
1FFFF0
3FFFF8
3FFFF8
7FC7FC
7F01FC
FE00FE
FE00FE
FE00FE
FE00FE
FE00FE
FE00FE
FE00FE
FE00FE
FE00FE
FE00FE
FE00FE
FE00FE
FE00FE
FE00FE
FE00FE
FF01FE
7F83FC
7FFFFC
3FFFF8
1FFFF0
0FFFE0
03FF80
ENDCHAR
STARTCHAR 00D3
ENCODING 211
SWIDTH 600 0
DWIDTH 25 0
BBX 23 37 1 0
BITMAP
000FE0
000FC0
001F80
003F00
003E00
007C00
000000
000000
01FF00
07FFC0
1FFFF0
3FFFF8
3FFFF8
7FC7FC
7F01FC
FE00FE
FE00FE
FE00FE
FE00FE
FE00FE
FE00FE
FE00FE
FE00FE
FE00FE
FE00FE
FE00FE
FE00FE
FE00FE
FE00FE
FE00FE
FF01FE
7F83FC
7FFFFC
3FFFF8
1FFFF0
0FFFE0
03FF80
ENDCHAR
STARTCHAR 00D4
ENCODING 212
SWIDTH 600 0
DWIDTH 25 0
BBX 23 37 1 0
BITMAP
00FE00
01FF00
03EF80
03C780
0783C0
0F83E0
000000
000000
01FF00
07FFC0
1FFFF0
3FFFF8
3FFFF8
7FC7FC
7F01FC
FE00FE
FE00FE
FE00FE
FE00FE
FE00FE
FE00FE
FE00FE
FE00FE
FE00FE
FE00FE
FE00FE
FE00FE
FE00FE
FE00FE
FE00FE
FF01FE
7F83FC
7FFFFC
3FFFF8
1FFFF0
0FFFE0
03FF80
ENDCHAR
STARTCHAR 00D5
ENCODING 213
SWIDTH 600 0
DWIDTH 25 0
BBX 23 37 1 0
BITMAP
03E070
07FDE0
0FFFE0
0FFFE0
0E3FC0
1C0700
000000
000000
01FF00
07FFC0
1FFFF0
3FFFF8
3FFFF8
7FC7FC
7F01FC
FE00FE
FE00FE
FE00FE
FE00FE
FE00FE
FE00FE
FE00FE
FE00FE
FE00FE
FE00FE
FE00FE
FE00FE
FE00FE
FE00FE
FE00FE
FF01FE
7F83FC
7FFFFC
3FFFF8
1FFFF0
0FFFE0
03FF80
ENDCHAR
STARTCHAR 00D6
ENCODING 214
SWIDTH 600 0
DWIDTH 25 0
BBX 23 37 1 0
BITMAP
0F83E0
0F83E0
0F83E0
0F83E0
0F83E0
000000
000000
000000
01FF00
07FFC0
1FFFF0
3FFFF8
3FFFF8
7FC7FC
7F01FC
FE00FE
FE00FE
FE00FE
FE00FE
FE00FE
FE00FE
FE00FE
FE00FE
FE00FE
FE00FE
FE00FE
FE00FE
FE00FE
FE00FE
FE00FE
FF01FE
7F83FC
7FFFFC
3FFFF8
1FFFF0
0FFFE0
03FF80
ENDCHAR
STARTCHAR 00D7
ENCODING 215
SWIDTH 600 0
DWIDTH 25 0
BBX 19 18 3 2
BITMAP
100100
380380
7C07C0
FE0FE0
7F1FC0
3FBF80
1FFF00
0FFE00
07FC00
03F800
07FC00
0FFE00
1FFF00
3FBF80
7F1FC0
FE0FE0
3C0780
180300
ENDCHAR
STARTCHAR 00D8
ENCODING 216
SWIDTH 600 0
DWIDTH 25 0
BBX 25 34 0 -3
BITMAP
00000F80
00000E00
00FF9E00
03FFFC00
0FFFFC00
1FFFFC00
1FFFFC00
3FE3FE00
3F80FE00
7F01FF00
7F03FF00
7F03FF00
7F07FF00
7F0F7F00
7F0F7F00
7F1E7F00
7F1E7F00
7F3C7F00
7F787F00
7F787F00
7FF07F00
7FF07F00
7FE07F00
7FC07F00
7FC0FF00
3FC1FE00
3FFFFE00
1FFFFC00
1FFFF800
1FFFF000
3DFFC000
3C000000
78000000
F0000000
ENDCHAR
STARTCHAR 00D9
ENCODING 217
SWIDTH 600 0
DWIDTH 25 0
BBX 21 37 2 0
BITMAP
0FC000
07C000
03E000
01F000
01F800
00F800
000000
000000
FE01F8
FE01F8
FE01F8
FE01F8
FE01F8
FE01F8
FE01F8
FE01F8
FE01F8
FE01F8
FE01F8
FE01F8
FE01F8
FE01F8
FE01F8
FE01F8
FE01F8
FE01F8
FE01F8
FE01F8
FE03F8
FE03F8
FE03F8
FF07F8
7FFFF0
7FFFF0
3FFFE0
1FFFC0
07FF00
ENDCHAR
STARTCHAR 00DA
ENCODING 218
SWIDTH 600 0
DWIDTH 25 0
BBX 21 37 2 0
BITMAP
001FC0
001F80
003F00
007E00
007C00
00F800
000000
000000
FE01F8
FE01F8
FE01F8
FE01F8
FE01F8
FE01F8
FE01F8
FE01F8
FE01F8
FE01F8
FE01F8
FE01F8
FE01F8
FE01F8
FE01F8
FE01F8
FE01F8
FE01F8
FE01F8
FE01F8
FE03F8
FE03F8
FE03F8
FF07F8
7FFFF0
7FFFF0
3FFFE0
1FFFC0
07FF00
ENDCHAR
STARTCHAR 00DB
ENCODING 219
SWIDTH 600 0
DWIDTH 25 0
BBX 21 37 2 0
BITMAP
01FC00
03FE00
07DF00
078F00
0F0780
1F07C0
000000
000000
FE01F8
FE01F8
FE01F8
FE01F8
FE01F8
FE01F8
FE01F8
FE01F8
FE01F8
FE01F8
FE01F8
FE01F8
FE01F8
FE01F8
FE01F8
FE01F8
FE01F8
FE01F8
FE01F8
FE01F8
FE03F8
FE03F8
FE03F8
FF07F8
7FFFF0
7FFFF0
3FFFE0
1FFFC0
07FF00
ENDCHAR
STARTCHAR 00DC
ENCODING 220
SWIDTH 600 0
DWIDTH 25 0
BBX 21 37 2 0
BITMAP
1F07C0
1F07C0
1F07C0
1F07C0
1F07C0
000000
000000
000000
FE01F8
FE01F8
FE01F8
FE01F8
FE01F8
FE01F8
FE01F8
FE01F8
FE01F8
FE01F8
FE01F8
FE01F8
FE01F8
FE01F8
FE01F8
FE01F8
FE01F8
FE01F8
FE01F8
FE01F8
FE03F8
FE03F8
FE03F8
FF07F8
7FFFF0
7FFFF0
3FFFE0
1FFFC0
07FF00
ENDCHAR
STARTCHAR 00DD
ENCODING 221
SWIDTH 600 0
DWIDTH 25 0
BBX 25 37 0 0
BITMAP
0007F000
0007E000
000FC000
001F8000
001F0000
003E0000
00000000
00000000
FF003F80
7F007F00
7F807F00
3F80FE00
3FC0FE00
1FC0FC00
1FC1FC00
0FE1F800
0FE3F800
07F3F000
07F7F000
03FFF000
03FFE000
01FFE000
01FFC000
01FFC000
00FF8000
00FF8000
007F0000
007F0000
007F0000
007F0000
007F0000
007F0000
007F0000
007F0000
007F0000
007F0000
007F0000
ENDCHAR
STARTCHAR 00DE
ENCODING 222
SWIDTH 600 0
DWIDTH 25 0
BBX 22 29 2 0
BITMAP
FE0000
FE0000
FE0000
FE0000
FE0000
FFFF00
FFFFE0
FFFFF0
FFFFF8
FFFFF8
FE07FC
FE01FC
FE01FC
FE01FC
FE01FC
FE01FC
FE01FC
FE0FFC
FFFFF8
FFFFF0
FFFFE0
FFFFC0
FFFE00
FE0000
FE0000
FE0000
FE0000
FE0000
FE0000
ENDCHAR
STARTCHAR 00DF
ENCODING 223
SWIDTH 600 0
DWIDTH 25 0
BBX 24 33 0 -3
BITMAP
00FFC0
03FFF0
07FFF8
0FFFFC
0FFFFE
1FE0FE
1FC07E
1FC07E
1FC07E
FFC07E
FFC0FC
FFC1FC
FFDFF8
FFDFE0
1FDFF8
1FDFFC
1FC1FE
1FC07E
1FC07F
1FC03F
1FC03F
1FC03F
1FC07F
1FC07F
1FC0FF
1FDFFE
1FDFFE
1FDFFC
1FDFF0
1FDFC0
1FC000
1FC000
1FC000
ENDCHAR
STARTCHAR 00E0
ENCODING 224
SWIDTH 600 0
DWIDTH 25 0
BBX 22 32 2 0
BITMAP
0FC000
07C000
07E000
03E000
01F000
01F000
00F800
007800
000000
000000
01F000
0FFF00
1FFFC0
3FFFE0
7F9FE0
7E07F0
7E07F0
0007F0
0007F0
01FFF0
0FFFF0
3FFFF0
7FE7F0
7E07F0
FE07F0
FE07F0
FE07F0
FE0FF0
FFFFFC
7FFFFC
7FFBFC
1FE1FC
ENDCHAR
STARTCHAR 00E1
ENCODING 225
SWIDTH 600 0
DWIDTH 25 0
BBX 22 32 2 0
BITMAP
003F00
003E00
007E00
007C00
00F800
00F800
01F000
01E000
000000
000000
01F000
0FFF00
1FFFC0
3FFFE0
7F9FE0
7E07F0
7E07F0
0007F0
0007F0
01FFF0
0FFFF0
3FFFF0
7FE7F0
7E07F0
FE07F0
FE07F0
FE07F0
FE0FF0
FFFFFC
7FFFFC
7FFBFC
1FE1FC
ENDCHAR
STARTCHAR 00E2
ENCODING 226
SWIDTH 600 0
DWIDTH 25 0
BBX 22 32 2 0
BITMAP
01F800
01FC00
03FC00
07FE00
0F9F00
0F8F80
1F0F80
3E07C0
000000
000000
01F000
0FFF00
1FFFC0
3FFFE0
7F9FE0
7E07F0
7E07F0
0007F0
0007F0
01FFF0
0FFFF0
3FFFF0
7FE7F0
7E07F0
FE07F0
FE07F0
FE07F0
FE0FF0
FFFFFC
7FFFFC
7FFBFC
1FE1FC
ENDCHAR
STARTCHAR 00E3
ENCODING 227
SWIDTH 600 0
DWIDTH 25 0
BBX 22 31 2 0
BITMAP
0780E0
1FE1C0
1FFFC0
3FFFC0
38FF80
383F00
000000
000000
000000
01F000
0FFF00
1FFFC0
3FFFE0
7F9FE0
7E07F0
7E07F0
0007F0
0007F0
01FFF0
0FFFF0
3FFFF0
7FE7F0
7E07F0
FE07F0
FE07F0
FE07F0
FE0FF0
FFFFFC
7FFFFC
7FFBFC
1FE1FC
ENDCHAR
STARTCHAR 00E4
ENCODING 228
SWIDTH 600 0
DWIDTH 25 0
BBX 22 30 2 0
BITMAP
1F07C0
1F07C0
1F07C0
1F07C0
1F07C0
000000
000000
000000
01F000
0FFF00
1FFFC0
3FFFE0
7F9FE0
7E07F0
7E07F0
0007F0
0007F0
01FFF0
0FFFF0
3FFFF0
7FE7F0
7E07F0
FE07F0
FE07F0
FE07F0
FE0FF0
FFFFFC
7FFFFC
7FFBFC
1FE1FC
ENDCHAR
STARTCHAR 00E5
ENCODING 229
SWIDTH 600 0
DWIDTH 25 0
BBX 22 33 2 0
BITMAP
006000
01F800
03FC00
038E00
030E00
038E00
03FC00
01F800
007000
000000
000000
01F000
0FFF00
1FFFC0
3FFFE0
7F9FE0
7E07F0
7E07F0
0007F0
0007F0
01FFF0
0FFFF0
3FFFF0
7FE7F0
7E07F0
FE07F0
FE07F0
FE07F0
FE0FF0
FFFFFC
7FFFFC
7FFBFC
1FE1FC
ENDCHAR
STARTCHAR 00E6
ENCODING 230
SWIDTH 600 0
DWIDTH 25 0
BBX 25 22 0 0
BITMAP
0780F000
1FE3FC00
3FF7FE00
3FFFFE00
7CFFBF00
7C7F1F00
783F0F00
003E0F80
003E0F80
03FFFF80
1FFFFF80
3FFFFF80
7FBE0000
7C3E0000
F83E0F80
F83F0F80
F87F0F00
F87F1F00
7FFFFF00
7FFFFE00
3FE7FE00
1FC3F800
ENDCHAR
STARTCHAR 00E7
ENCODING 231
SWIDTH 600 0
DWIDTH 25 0
BBX 20 31 2 -9
BITMAP
00F800
07FF00
0FFF80
3FFFC0
3FDFE0
7F07E0
7E03F0
FE03F0
FE03F0
FE0000
FE0000
FE0000
FE0000
FE01F0
FE03F0
FE03F0
7E03F0
7F07E0
3FFFE0
1FFFC0
0FFF80
03FE00
000000
007800
007C00
001E00
000E00
020E00
03FE00
03FC00
00F000
ENDCHAR
STARTCHAR 00E8
ENCODING 232
SWIDTH 600 0
DWIDTH 25 0
BBX 21 32 2 0
BITMAP
07C000
07E000
03E000
01F000
01F000
00F800
007800
007C00
000000
000000
007800
07FF00
1FFFC0
3FFFE0
3FDFF0
7F07F0
7E03F8
FE03F8
FE01F8
FFFFF8
FFFFF8
FFFFF8
FFFFF8
FE0000
FE01F8
FE01F8
7E03F8
7F03F0
3FFFF0
3FFFE0
1FFFC0
07FF00
ENDCHAR
STARTCHAR 00E9
ENCODING 233
SWIDTH 600 0
DWIDTH 25 0
BBX 21 32 2 0
BITMAP
001F80
001F00
003E00
003E00
007C00
007800
00F800
00F000
000000
000000
007800
07FF00
1FFFC0
3FFFE0
3FDFF0
7F07F0
7E03F8
FE03F8
FE01F8
FFFFF8
FFFFF8
FFFFF8
FFFFF8
FE0000
FE01F8
FE01F8
7E03F8
7F03F0
3FFFF0
3FFFE0
1FFFC0
07FF00
ENDCHAR
STARTCHAR 00EA
ENCODING 234
SWIDTH 600 0
DWIDTH 25 0
BBX 21 32 2 0
BITMAP
00FC00
01FC00
01FE00
03FF00
07CF80
0F8F80
0F07C0
1F03E0
000000
000000
007800
07FF00
1FFFC0
3FFFE0
3FDFF0
7F07F0
7E03F8
FE03F8
FE01F8
FFFFF8
FFFFF8
FFFFF8
FFFFF8
FE0000
FE01F8
FE01F8
7E03F8
7F03F0
3FFFF0
3FFFE0
1FFFC0
07FF00
ENDCHAR
STARTCHAR 00EB
ENCODING 235
SWIDTH 600 0
DWIDTH 25 0
BBX 21 30 2 0
BITMAP
1F07C0
1F07C0
1F07C0
1F07C0
1F07C0
000000
000000
000000
007800
07FF00
1FFFC0
3FFFE0
3FDFF0
7F07F0
7E03F8
FE03F8
FE01F8
FFFFF8
FFFFF8
FFFFF8
FFFFF8
FE0000
FE01F8
FE01F8
7E03F8
7F03F0
3FFFF0
3FFFE0
1FFFC0
07FF00
ENDCHAR
STARTCHAR 00EC
ENCODING 236
SWIDTH 600 0
DWIDTH 25 0
BBX 21 32 3 0
BITMAP
0FC000
07E000
03E000
03F000
01F000
00F800
00F800
007C00
000000
000000
000000
FFFC00
FFFC00
FFFC00
FFFC00
FFFC00
00FC00
00FC00
00FC00
00FC00
00FC00
00FC00
00FC00
00FC00
00FC00
00FC00
00FC00
FFFFF8
FFFFF8
FFFFF8
FFFFF8
FFFFF8
ENDCHAR
STARTCHAR 00ED
ENCODING 237
SWIDTH 600 0
DWIDTH 25 0
BBX 21 32 3 0
BITMAP
001F80
003F00
003E00
007C00
007C00
00F800
00F000
01F000
000000
000000
000000
FFFC00
FFFC00
FFFC00
FFFC00
FFFC00
00FC00
00FC00
00FC00
00FC00
00FC00
00FC00
00FC00
00FC00
00FC00
00FC00
00FC00
FFFFF8
FFFFF8
FFFFF8
FFFFF8
FFFFF8
ENDCHAR
STARTCHAR 00EE
ENCODING 238
SWIDTH 600 0
DWIDTH 25 0
BBX 21 32 3 0
BITMAP
00F800
01FC00
03FE00
03DE00
07DF00
0F8F80
1F07C0
3E03E0
000000
000000
000000
FFFC00
FFFC00
FFFC00
FFFC00
FFFC00
00FC00
00FC00
00FC00
00FC00
00FC00
00FC00
00FC00
00FC00
00FC00
00FC00
00FC00
FFFFF8
FFFFF8
FFFFF8
FFFFF8
FFFFF8
ENDCHAR
STARTCHAR 00EF
ENCODING 239
SWIDTH 600 0
DWIDTH 25 0
BBX 21 30 3 0
BITMAP
1F07C0
1F07C0
1F07C0
1F07C0
1F07C0
000000
000000
000000
000000
FFFC00
FFFC00
FFFC00
FFFC00
FFFC00
00FC00
00FC00
00FC00
00FC00
00FC00
00FC00
00FC00
00FC00
00FC00
00FC00
00FC00
FFFFF8
FFFFF8
FFFFF8
FFFFF8
FFFFF8
ENDCHAR
STARTCHAR 00F0
ENCODING 240
SWIDTH 600 0
DWIDTH 25 0
BBX 21 31 2 0
BITMAP
020000
0F8C00
3FFE00
07FC00
03F800
0FFC00
3EFE00
087F00
003F80
019FC0
0FFFC0
1FFFE0
3FFFF0
7FDFF0
7F07F0
FE03F8
FE03F8
FE03F8
FE03F8
FE03F8
FE03F8
FE03F8
FE03F8
FE03F8
FE03F8
FE03F8
7F07F0
3FFFE0
3FFFE0
0FFF80
07FF00
ENDCHAR
STARTCHAR 00F1
ENCODING 241
SWIDTH 600 0
DWIDTH 25 0
BBX 19 31 3 0
BITMAP
0F81C0
1FE1C0
3FFFC0
3FFF80
78FF80
703F00
000000
000000
000000
003800
F9FF80
FFFFC0
FFFFC0
FFFFE0
FF1FE0
FE0FE0
FE07E0
FC07E0
FC07E0
FC07E0
FC07E0
FC07E0
FC07E0
FC07E0
FC07E0
FC07E0
FC07E0
FC07E0
FC07E0
FC07E0
FC07E0
ENDCHAR
STARTCHAR 00F2
ENCODING 242
SWIDTH 600 0
DWIDTH 25 0
BBX 21 32 2 0
BITMAP
0FC000
07E000
03E000
03F000
01F000
00F800
00F800
007C00
000000
000000
00F800
07FF00
1FFFC0
3FFFE0
3FDFE0
7F07F0
FE03F8
FE03F8
FE03F8
FE03F8
FE03F8
FE03F8
FE03F8
FE03F8
FE03F8
FE03F8
7E03F0
7F07F0
3FFFE0
1FFFC0
0FFF80
03FF00
ENDCHAR
STARTCHAR 00F3
ENCODING 243
SWIDTH 600 0
DWIDTH 25 0
BBX 21 32 2 0
BITMAP
001F80
003F00
003E00
007C00
007C00
00F800
00F000
01F000
000000
000000
00F800
07FF00
1FFFC0
3FFFE0
3FDFE0
7F07F0
FE03F8
FE03F8
FE03F8
FE03F8
FE03F8
FE03F8
FE03F8
FE03F8
FE03F8
FE03F8
7E03F0
7F07F0
3FFFE0
1FFFC0
0FFF80
03FF00
ENDCHAR
STARTCHAR 00F4
ENCODING 244
SWIDTH 600 0
DWIDTH 25 0
BBX 21 32 2 0
BITMAP
00F800
01FC00
03FE00
03DE00
07DF00
0F8F80
1F07C0
3E03E0
000000
000000
00F800
07FF00
1FFFC0
3FFFE0
3FDFE0
7F07F0
FE03F8
FE03F8
FE03F8
FE03F8
FE03F8
FE03F8
FE03F8
FE03F8
FE03F8
FE03F8
7E03F0
7F07F0
3FFFE0
1FFFC0
0FFF80
03FF00
ENDCHAR
STARTCHAR 00F5
ENCODING 245
SWIDTH 600 0
DWIDTH 25 0
BBX 21 31 2 0
BITMAP
07C0E0
0FF1E0
1FFFC0
1FFFC0
3C7FC0
381F80
000000
000000
000000
00F800
07FF00
1FFFC0
3FFFE0
3FDFE0
7F07F0
FE03F8
FE03F8
FE03F8
FE03F8
FE03F8
FE03F8
FE03F8
FE03F8
FE03F8
FE03F8
7E03F0
7F07F0
3FFFE0
1FFFC0
0FFF80
03FF00
ENDCHAR
STARTCHAR 00F6
ENCODING 246
SWIDTH 600 0
DWIDTH 25 0
BBX 21 30 2 0
BITMAP
1F07C0
1F07C0
1F07C0
1F07C0
1F07C0
000000
000000
000000
00F800
07FF00
1FFFC0
3FFFE0
3FDFE0
7F07F0
FE03F8
FE03F8
FE03F8
FE03F8
FE03F8
FE03F8
FE03F8
FE03F8
FE03F8
FE03F8
7E03F0
7F07F0
3FFFE0
1FFFC0
0FFF80
03FF00
ENDCHAR
STARTCHAR 00F7
ENCODING 247
SWIDTH 600 0
DWIDTH 25 0
BBX 21 19 2 1
BITMAP
00F800
00F800
00F800
00F800
00F800
000000
000000
FFFFF8
FFFFF8
FFFFF8
FFFFF8
FFFFF8
000000
000000
00F800
00F800
00F800
00F800
00F800
ENDCHAR
STARTCHAR 00F8
ENCODING 248
SWIDTH 600 0
DWIDTH 25 0
BBX 21 26 2 -2
BITMAP
000070
0000E0
00F8E0
07FFC0
1FFFC0
3FFFE0
3FDFE0
7F0FF0
FE0FF8
FE1FF8
FE3FF8
FE3BF8
FE7BF8
FE73F8
FEE3F8
FFE3F8
FFC3F8
FF83F8
7F83F0
7F07F0
3FFFE0
1FFFC0
1FFF80
3FFF00
380000
700000
ENDCHAR
STARTCHAR 00F9
ENCODING 249
SWIDTH 600 0
DWIDTH 25 0
BBX 22 32 2 0
BITMAP
0FC000
07C000
07E000
03E000
01F000
00F000
00F800
007800
000000
000000
000000
FE03F0
FE03F0
FE03F0
FE03F0
FE03F0
FE03F0
FE03F0
FE03F0
FE03F0
FE03F0
FE03F0
FE03F0
FE03F0
FE03F0
FE07F0
FF07F0
7F9FF0
7FFFFC
7FFFFC
3FFDFC
0FF1FC
ENDCHAR
STARTCHAR 00FA
ENCODING 250
SWIDTH 600 0
DWIDTH 25 0
BBX 22 32 2 0
BITMAP
003F00
003F00
007E00
007C00
007C00
00F800
00F000
01F000
000000
000000
000000
FE03F0
FE03F0
FE03F0
FE03F0
FE03F0
FE03F0
FE03F0
FE03F0
FE03F0
FE03F0
FE03F0
FE03F0
FE03F0
FE03F0
FE07F0
FF07F0
7F9FF0
7FFFFC
7FFFFC
3FFDFC
0FF1FC
ENDCHAR
STARTCHAR 00FB
ENCODING 251
SWIDTH 600 0
DWIDTH 25 0
BBX 22 32 2 0
BITMAP
00F800
01FC00
03FC00
07FE00
079F00
0F8F80
1F0780
3E07C0
000000
000000
000000
FE03F0
FE03F0
FE03F0
FE03F0
FE03F0
FE03F0
FE03F0
FE03F0
FE03F0
FE03F0
FE03F0
FE03F0
FE03F0
FE03F0
FE07F0
FF07F0
7F9FF0
7FFFFC
7FFFFC
3FFDFC
0FF1FC
ENDCHAR
STARTCHAR 00FC
ENCODING 252
SWIDTH 600 0
DWIDTH 25 0
BBX 22 30 2 0
BITMAP
1F07C0
1F07C0
1F07C0
1F07C0
1F07C0
000000
000000
000000
000000
FE03F0
FE03F0
FE03F0
FE03F0
FE03F0
FE03F0
FE03F0
FE03F0
FE03F0
FE03F0
FE03F0
FE03F0
FE03F0
FE03F0
FE07F0
FF07F0
7F9FF0
7FFFFC
7FFFFC
3FFDFC
0FF1FC
ENDCHAR
STARTCHAR 00FD
ENCODING 253
SWIDTH 600 0
DWIDTH 25 0
BBX 23 40 1 -8
BITMAP
000FC0
000F80
001F80
001F00
003E00
003E00
007C00
007800
000000
000000
800002
7F00FC
7F00FC
7F01FC
3F81F8
3F81F8
1F83F0
1FC3F0
1FC3F0
0FC7E0
0FE7E0
07E7E0
07EFC0
07FFC0
03FF80
03FF80
01FF80
01FF00
01FF00
00FF00
00FE00
00FE00
00FC00
00FC00
01F800
3FF800
3FF000
3FE000
3FC000
1E0000
ENDCHAR
STARTCHAR 00FE
ENCODING 254
SWIDTH 600 0
DWIDTH 25 0
BBX 20 38 3 -8
BITMAP
FC0000
FC0000
FC0000
FC0000
FC0000
FC0000
FC0000
FC0000
FC3800
FCFF00
FFFF80
FFFFC0
FFFFE0
FF07E0
FE07F0
FE03F0
FC03F0
FC03F0
FC03F0
FC03F0
FC03F0
FC03F0
FC03F0
FE03F0
FE07F0
FF0FE0
FFFFE0
FFFFC0
FDFF80
FCFF00
FC0000
FC0000
FC0000
FC0000
FC0000
FC0000
FC0000
FC0000
ENDCHAR
STARTCHAR 00FF
ENCODING 255
SWIDTH 600 0
DWIDTH 25 0
BBX 23 38 1 -8
BITMAP
0FC3E0
0FC3E0
0FC3E0
0FC3E0
0FC3E0
000000
000000
000000
800002
7F00FC
7F00FC
7F01FC
3F81F8
3F81F8
1F83F0
1FC3F0
1FC3F0
0FC7E0
0FE7E0
07E7E0
07EFC0
07FFC0
03FF80
03FF80
01FF80
01FF00
01FF00
00FF00
00FE00
00FE00
00FC00
00FC00
01F800
3FF800
3FF000
3FE000
3FC000
1E0000
ENDCHAR
STARTCHAR 0152
ENCODING 140
SWIDTH 600 0
DWIDTH 25 0
BBX 24 29 1 0
BITMAP
007FFE
07FFFE
1FFFFE
3FFFFE
7FFFFE
7FFFFC
FE0F80
FC0F80
FC0F80
FC0F80
FC0F80
FC0F80
FC0FFC
FC0FFC
FC0FFC
FC0FFC
FC0FFC
FC0F80
FC0F80
FC0F80
FC0F80
FC0F80
FE0F80
7F8F80
7FFFFE
3FFFFE
1FFFFF
0FFFFF
03FFFF
ENDCHAR
STARTCHAR 0153
ENCODING 156
SWIDTH 600 0
DWIDTH 25 0
BBX 25 22 0 0
BITMAP
0780F000
1FE3FC00
3FF7FE00
3FFFFE00
7EFFBF00
7C7F1F00
783F0F00
F83E0F80
F83E0F80
F83FFF80
F83FFF80
F83FFF80
F83E0000
F83E0000
F83E0F80
F83F0F80
783F0F00
7C7F1F00
7FFFFF00
3FF7FE00
3FF7FE00
0FC3F800
ENDCHAR
STARTCHAR 0160
ENCODING 138
SWIDTH 600 0
DWIDTH 25 0
BBX 23 37 1 0
BITMAP
0F83E0
07C7C0
03EF80
01FF00
01FF00
00FE00
000000
000000
00FF00
07FFE0
1FFFF0
3FFFF8
7FFFFC
7F83FC
7F00FC
FF00FE
FF00FE
FF0000
7FC000
7FFC00
7FFF80
3FFFF0
1FFFF8
07FFFC
01FFFC
001FFE
0003FE
0001FE
FC00FE
FC00FE
FE00FE
FF03FE
7FFFFC
7FFFFC
3FFFF8
0FFFF0
03FF80
ENDCHAR
STARTCHAR 0161
ENCODING 154
SWIDTH 600 0
DWIDTH 25 0
BBX 21 32 2 0
BITMAP
3E03E0
1F07C0
0F8F80
07DF00
03DE00
03FE00
01FC00
00F800
000000
000000
00F800
0FFF00
1FFFC0
3FFFE0
7F9FE0
7E03F0
7E03F0
7E0000
7FE000
7FFF00
3FFFC0
1FFFE0
0FFFF0
00FFF0
0007F8
FC01F8
FC01F8
7E03F0
7FFFF0
3FFFE0
1FFFC0
07FF00
ENDCHAR
STARTCHAR 0178
ENCODING 159
SWIDTH 600 0
DWIDTH 25 0
BBX 25 37 0 0
BITMAP
07C1F000
07C1F000
07C1F000
07C1F000
07C1F000
00000000
00000000
00000000
FF003F80
7F007F00
7F807F00
3F80FE00
3FC0FE00
1FC0FC00
1FC1FC00
0FE1F800
0FE3F800
07F3F000
07F7F000
03FFF000
03FFE000
01FFE000
01FFC000
01FFC000
00FF8000
00FF8000
007F0000
007F0000
007F0000
007F0000
007F0000
007F0000
007F0000
007F0000
007F0000
007F0000
007F0000
ENDCHAR
STARTCHAR 017D
ENCODING 142
SWIDTH 600 0
DWIDTH 25 0
BBX 23 37 1 0
BITMAP
0F83E0
07C7C0
03EF80
01FF00
01FF00
00FE00
000000
000000
7FFFFE
7FFFFE
7FFFFE
7FFFFC
7FFFF8
7FFFF8
000FF0
000FF0
001FE0
001FC0
003FC0
007F80
007F80
00FF00
00FE00
01FE00
03FC00
03FC00
07F800
0FF000
0FF000
1FE000
1FE000
3FC000
7FFFFE
7FFFFE
FFFFFE
FFFFFE
FFFFFE
ENDCHAR
STARTCHAR 017E
ENCODING 158
SWIDTH 600 0
DWIDTH 25 0
BBX 17 32 4 0
BITMAP
F80F80
7C1F00
3E3E00
1F7C00
0F7800
0FF800
07F000
03E000
000000
000000
000000
FFFF80
FFFF80
FFFF80
FFFF00
00FE00
00FE00
01FC00
03FC00
03F800
07F000
07F000
0FE000
1FE000
1FC000
3F8000
3F8000
7F0000
FFFF80
FFFF80
FFFF80
FFFF80
ENDCHAR
STARTCHAR 0192
ENCODING 131
SWIDTH 600 0
DWIDTH 25 0
BBX 22 38 1 -8
BITMAP
0007FC
001FFC
001FF8
003FF8
003F80
007F00
007F00
007F00
007F00
03FFF8
03FFF0
03FFF0
03FFF0
03FFF0
00FE00
00FE00
00FE00
00FC00
00FC00
00FC00
01FC00
01FC00
01FC00
01FC00
01F800
01F800
01F800
03F800
03F800
03F800
03F800
03F000
07F000
7FF000
FFF000
FFE000
FFC000
1C0000
ENDCHAR
STARTCHAR 02C6
ENCODING 136
SWIDTH 600 0
DWIDTH 25 0
BBX 17 8 4 24
BITMAP
03E000
07F000
0FF800
0F7800
1F7C00
3E3E00
7C1F00
F80F80
ENDCHAR
STARTCHAR 02DC
ENCODING 152
SWIDTH 600 0
DWIDTH 25 0
BBX 17 6 4 25
BITMAP
1F0380
3FC780
7FFF00
7FFF00
F1FF00
E07E00
ENDCHAR
STARTCHAR 2013
ENCODING 150
SWIDTH 600 0
DWIDTH 25 0
BBX 17 5 4 9
BITMAP
FFFF80
FFFF80
FFFF80
FFFF80
FFFF80
ENDCHAR
STARTCHAR 2014
ENCODING 151
SWIDTH 600 0
DWIDTH 25 0
BBX 25 5 0 9
BITMAP
FFFFFF80
FFFFFF80
FFFFFF80
FFFFFF80
FFFFFF80
ENDCHAR
STARTCHAR 2018
ENCODING 145
SWIDTH 600 0
DWIDTH 25 0
BBX 7 15 9 14
BITMAP
1E
3C
78
78
70
F0
F0
FE
FE
FE
FE
FE
FE
FE
FE
ENDCHAR
STARTCHAR 2019
ENCODING 146
SWIDTH 600 0
DWIDTH 25 0
BBX 7 15 9 14
BITMAP
FE
FE
FE
FE
FE
FE
FE
1E
1E
1C
3C
3C
78
F8
F0
ENDCHAR
STARTCHAR 201A
ENCODING 130
SWIDTH 600 0
DWIDTH 25 0
BBX 7 15 9 -8
BITMAP
FE
FE
FE
FE
FE
FE
FE
1E
1E
1C
3C
3C
78
F8
F0
ENDCHAR
STARTCHAR 201C
ENCODING 147
SWIDTH 600 0
DWIDTH 25 0
BBX 17 15 4 14
BITMAP
1E0780
3C0F00
3C1E00
781E00
703C00
703C00
F03C00
FE3F80
FE3F80
FE3F80
FE3F80
FE3F80
FE3F80
FE3F80
FE3F80
ENDCHAR
STARTCHAR 201D
ENCODING 148
SWIDTH 600 0
DWIDTH 25 0
BBX 17 15 4 14
BITMAP
FE3F80
FE3F80
FE3F80
FE3F80
FE3F80
FE3F80
FE3F80
1E0780
1E0700
1E0700
1C0F00
3C0F00
781E00
783C00
F03C00
ENDCHAR
STARTCHAR 201E
ENCODING 132
SWIDTH 600 0
DWIDTH 25 0
BBX 17 15 4 -8
BITMAP
FE3F80
FE3F80
FE3F80
FE3F80
FE3F80
FE3F80
FE3F80
1E0780
1E0700
1E0700
1C0F00
3C0F00
781E00
783C00
F03C00
ENDCHAR
STARTCHAR 2020
ENCODING 134
SWIDTH 600 0
DWIDTH 25 0
BBX 21 36 2 -7
BITMAP
00F800
00F800
00F800
00F800
00F800
00F800
007000
007000
FFF7F8
FFFFF8
FFFFF8
FFFFF8
E07038
007000
007000
007000
007000
007000
007800
007800
00F800
00F800
00F800
00F800
00F800
00F800
00F800
00F800
00F800
00F800
00F800
00F800
00F800
00F800
00F800
00F800
ENDCHAR
STARTCHAR 2021
ENCODING 135
SWIDTH 600 0
DWIDTH 25 0
BBX 21 36 2 -7
BITMAP
00F800
00F800
00F800
00F800
00F800
00F800
007000
007000
FFF7F8
FFFFF8
FFFFF8
FFFFF8
E07038
007000
00F800
00F800
00F800
00F800
00F800
00F800
00F800
00F800
007800
007000
FE71F8
FFFFF8
FFFFF8
FFFFF8
F870F8
007000
007800
00F800
00F800
00F800
00F800
00F800
ENDCHAR
STARTCHAR 2022
ENCODING 149
SWIDTH 600 0
DWIDTH 25 0
BBX 13 14 6 7
BITMAP
0F80
3FE0
7FF0
FFF0
FFF8
FFF8
FFF8
FFF8
FFF8
FFF8
7FF0
3FE0
1FC0
0200
ENDCHAR
STARTCHAR 2026
ENCODING 133
SWIDTH 600 0
DWIDTH 25 0
BBX 21 7 2 0
BITMAP
F8F8F8
F8F8F8
F8F8F8
F8F8F8
F8F8F8
F8F8F8
F8F8F8
ENDCHAR
STARTCHAR 2030
ENCODING 137
SWIDTH 600 0
DWIDTH 25 0
BBX 23 29 1 0
BITMAP
060000
3F8000
7FC000
79E000
F0E000
F0E000
F0E000
F0E000
F0E000
71E000
7FC000
3FC000
1F0000
FFFFFE
FFFFFE
FFFFFE
000000
3F83F8
7FC7FC
79EF3C
F0EE1E
F0EE1E
F0EE1E
F0EE1E
F0EE1E
71EF1C
7FC7FC
3FC7F8
1F01F0
ENDCHAR
STARTCHAR 2039
ENCODING 139
SWIDTH 600 0
DWIDTH 25 0
BBX 9 14 8 7
BITMAP
0F80
1F00
1F00
3E00
7E00
7C00
FC00
FC00
7C00
7E00
3E00
1F00
0F00
0F80
ENDCHAR
STARTCHAR 203A
ENCODING 155
SWIDTH 600 0
DWIDTH 25 0
BBX 9 14 8 7
BITMAP
F800
7C00
7C00
3E00
3F00
1F00
1F80
1F80
1F00
3F00
3E00
7C00
7C00
F800
ENDCHAR
STARTCHAR 20AC
ENCODING 128
SWIDTH 600 0
DWIDTH 25 0
BBX 22 29 1 0
BITMAP
0003F8
001FFC
007FFC
00FFFC
01FFFC
03FFFC
07FC00
07F800
07F000
0FE000
FFFFC0
FFFFC0
FFFFC0
FFFFC0
0FC000
0FC000
FFFFC0
FFFFC0
FFFFC0
0FE000
0FF000
07F000
07FC00
03FF0C
03FFFC
01FFFC
00FFFC
003FFC
000FFC
ENDCHAR
STARTCHAR 2122
ENCODING 153
SWIDTH 600 0
DWIDTH 25 0
BBX 25 17 0 12
BITMAP
FFBE1F80
FFBE1F80
FFBF1F80
FFBF1F80
1C3F1B80
1C3F3B80
1C3F3B80
1C3B3B80
1C3BBB80
1C3BB380
1C3BB380
1C3BB380
1C3BF380
1C3BF380
1C39F380
1C39F380
1C39E380
ENDCHAR
ENDFONT
